{"glyphs":{"0":{"ha":854,"x_min":0,"x_max":0,"o":"m 810 658 b 535 1000 810 865 703 1000 b 32 242 238 1000 32 558 b 297 -121 32 50 114 -121 b 810 658 589 -121 810 282 z m 536 963 b 704 688 658 963 704 844 b 317 -74 704 382 526 -74 b 149 213 213 -74 149 40 b 536 963 149 467 285 963 z "},"1":{"ha":586,"x_min":0,"x_max":0,"o":"m 514 1000 b 222 760 414 890 274 786 b 257 719 222 726 235 719 b 417 811 274 719 311 736 b 217 -51 365 603 301 144 b 67 -67 168 -60 115 -67 b 22 -64 51 -67 36 -65 b 128 -121 47 -101 94 -121 b 364 -108 203 -121 276 -108 b 474 -115 400 -108 436 -111 b 339 -37 461 -51 410 -37 b 283 -42 322 -37 303 -39 b 494 801 382 167 457 546 b 526 957 503 857 526 911 b 514 1000 526 972 524 992 z "},"2":{"ha":857,"x_min":0,"x_max":0,"o":"m 321 588 b 304 682 308 622 304 644 b 494 963 304 840 372 963 b 642 765 579 963 642 904 b 269 47 642 519 439 197 b 124 67 214 58 164 67 b 19 0 51 67 19 42 b 114 -75 19 -44 58 -75 b 272 -15 161 -75 214 -53 b 332 -40 292 -22 311 -32 b 599 -121 424 -79 529 -121 b 740 15 672 -121 717 -79 b 635 -19 696 -11 669 -19 b 375 24 568 -19 471 1 l 336 32 b 674 474 468 140 600 311 b 739 747 713 560 739 654 b 517 1000 739 888 654 1000 b 217 711 339 1000 217 860 b 314 588 217 635 250 604 z m 113 -37 b 63 -3 88 -37 63 -24 b 111 31 63 10 74 31 b 217 6 136 31 174 21 b 113 -37 178 -21 142 -37 z "},"3":{"ha":739,"x_min":0,"x_max":0,"o":"m 546 828 b 321 488 546 710 457 549 b 475 233 436 457 475 342 b 250 -76 475 49 360 -76 b 103 96 160 -76 103 8 b 147 225 103 144 121 203 b 122 226 140 226 131 226 b 10 76 49 226 10 147 b 238 -121 10 -10 67 -121 b 617 233 454 -121 617 58 b 408 501 617 329 568 461 b 651 821 544 538 651 699 b 438 1000 651 942 549 1000 b 178 790 313 1000 178 925 b 229 681 178 743 194 681 b 285 719 249 681 275 700 b 263 813 269 751 263 785 b 421 963 263 908 343 963 b 546 828 485 963 546 926 z "},"4":{"ha":718,"x_min":0,"x_max":0,"o":"m 638 1000 b 51 365 508 774 199 539 b 26 307 35 351 26 332 b 297 329 93 321 176 329 b 413 328 329 329 371 328 b 382 181 396 250 383 192 b 343 -56 349 -4 343 -56 b 450 -121 343 -96 388 -115 b 497 243 450 -64 482 158 b 513 326 501 271 507 299 l 543 326 b 668 408 578 326 633 360 b 585 400 643 401 619 400 l 526 400 b 626 888 569 629 611 824 b 653 964 643 915 653 942 b 638 1000 653 986 644 997 z m 429 404 b 289 407 388 406 342 407 b 149 400 238 407 189 406 b 186 440 160 411 171 425 b 517 757 276 538 414 653 b 429 404 488 661 456 522 z "},"5":{"ha":742,"x_min":0,"x_max":0,"o":"m 247 -76 b 106 90 143 -76 106 7 b 150 225 106 147 124 203 b 125 226 143 226 133 226 b 13 75 51 226 13 147 b 247 -121 13 -10 67 -121 b 615 235 461 -121 615 35 b 340 497 615 385 528 497 b 219 483 299 497 258 492 b 325 849 225 500 286 761 b 357 876 336 872 340 876 b 508 858 392 876 439 858 b 679 963 588 858 679 882 b 674 1000 679 972 678 985 b 458 972 600 985 535 972 b 311 990 415 972 367 976 b 167 443 286 894 186 572 b 294 458 215 453 263 458 b 481 242 429 458 481 356 b 247 -76 481 93 394 -76 z "},"6":{"ha":796,"x_min":0,"x_max":0,"o":"m 592 968 b 668 892 654 968 668 932 b 665 853 668 874 665 868 b 729 919 717 868 729 893 b 599 1000 729 975 674 1000 b 64 222 276 1000 64 539 b 347 -121 64 32 140 -121 b 707 250 558 -121 707 40 b 453 519 707 438 590 519 b 218 429 367 519 279 486 b 592 968 276 681 414 968 z m 188 194 b 413 472 188 339 244 472 b 586 258 504 472 586 408 b 354 -76 586 100 496 -76 b 188 194 215 -76 188 92 z "},"7":{"ha":718,"x_min":0,"x_max":0,"o":"m 85 401 b 274 415 131 408 224 414 b 88 -58 172 211 88 22 b 135 -121 88 -100 110 -121 b 246 -37 160 -121 217 -100 b 229 15 233 -28 229 -8 b 353 415 229 138 306 300 b 458 414 399 414 432 414 b 568 485 503 414 538 440 b 524 481 557 482 549 481 b 386 488 478 481 438 485 b 608 893 461 653 539 792 b 683 997 636 924 669 975 b 450 969 626 978 536 969 b 196 997 325 969 272 985 b 178 939 185 976 178 957 b 319 874 178 901 211 874 b 543 882 382 874 492 882 b 314 492 479 771 388 631 l 281 492 b 85 401 190 492 88 485 z "},"8":{"ha":739,"x_min":0,"x_max":0,"o":"m 26 107 b 269 -121 26 13 82 -121 b 614 169 442 -121 614 -10 b 439 485 614 297 525 392 b 638 799 546 569 638 663 b 428 999 638 929 553 999 b 171 769 307 999 171 935 b 326 467 171 644 247 553 b 26 107 183 360 26 265 z m 111 111 b 363 426 111 243 235 333 b 500 164 435 347 500 268 b 283 -67 500 25 385 -67 b 111 111 197 -67 111 1 z m 279 788 b 429 961 279 915 367 961 b 557 800 497 961 557 908 b 403 526 557 685 490 600 b 279 788 336 603 279 683 z "},"9":{"ha":796,"x_min":0,"x_max":0,"o":"m 215 -89 b 136 -8 150 -89 136 -50 b 138 26 136 7 138 13 b 76 -37 89 11 76 -12 b 210 -121 76 -96 133 -121 b 718 636 524 -121 718 322 b 422 1000 718 836 639 1000 b 75 642 217 1000 75 844 b 339 360 75 446 197 360 b 569 450 424 360 511 392 b 215 -89 519 199 393 -89 z m 378 407 b 196 633 283 407 196 474 b 417 956 196 788 279 956 b 590 651 558 956 590 789 b 378 407 590 507 526 407 z "},"A":{"ha":807,"x_min":0,"x_max":0,"o":"m 64 393 b 214 386 99 393 146 392 b 3 -49 96 201 3 28 b 50 -121 3 -67 8 -97 b 292 379 119 43 204 218 b 497 351 349 372 415 364 b 474 144 482 275 474 204 b 582 -42 474 32 506 -42 b 822 211 674 -42 767 63 l 808 225 b 626 19 736 85 675 19 b 575 131 589 19 575 60 b 792 956 575 374 736 911 b 718 1000 764 983 738 1000 b 651 961 700 1000 679 988 b 260 456 565 881 401 668 b 160 465 224 461 190 465 b 15 393 89 465 35 446 z m 674 913 b 507 400 617 785 547 583 b 328 443 454 413 390 429 b 674 913 457 674 588 860 z "},"Æ":{"ha":1082,"x_min":0,"x_max":0,"o":"m 64 393 b 214 386 99 393 146 392 b 3 -49 96 201 3 28 b 50 -121 3 -67 8 -97 b 292 379 119 43 204 218 b 497 351 349 372 415 364 b 474 144 482 275 474 204 b 514 -12 474 75 486 15 b 721 -18 567 -18 644 -18 b 957 32 833 -18 942 -10 b 579 74 894 47 696 56 b 575 131 576 89 575 108 b 631 496 575 224 599 360 b 704 494 650 494 672 494 b 940 544 817 494 925 503 b 651 576 878 553 779 574 b 768 921 690 724 736 858 b 911 918 811 919 861 918 b 1147 968 1024 918 1132 926 b 718 1000 1069 979 867 1000 b 260 456 657 1000 450 742 b 160 465 224 461 190 465 b 15 393 89 465 35 446 z m 674 913 b 507 400 617 785 547 583 b 328 443 454 413 390 429 b 674 913 457 674 588 860 z "},"Á":{"ha":807,"x_min":0,"x_max":0,"o":"m 64 393 b 214 386 99 393 146 392 b 3 -49 96 201 3 28 b 50 -121 3 -67 8 -97 b 292 379 119 43 204 218 b 497 351 349 372 415 364 b 474 144 482 275 474 204 b 582 -42 474 32 506 -42 b 822 211 674 -42 767 63 l 808 225 b 626 19 736 85 675 19 b 575 131 589 19 575 60 b 792 956 575 374 736 911 b 718 1000 764 983 738 1000 b 651 961 700 1000 679 988 b 260 456 565 881 401 668 b 160 465 224 461 190 465 b 15 393 89 465 35 446 z m 674 913 b 507 400 617 785 547 583 b 328 443 454 413 390 429 b 674 913 457 674 588 860 z m 918 1200 b 888 1243 915 1233 903 1243 b 743 1075 832 1243 743 1107 b 763 1039 743 1067 749 1046 b 918 1200 803 1093 851 1142 z "},"Â":{"ha":807,"x_min":0,"x_max":0,"o":"m 64 393 b 214 386 99 393 146 392 b 3 -49 96 201 3 28 b 50 -121 3 -67 8 -97 b 292 379 119 43 204 218 b 497 351 349 372 415 364 b 474 144 482 275 474 204 b 582 -42 474 32 506 -42 b 822 211 674 -42 767 63 l 808 225 b 626 19 736 85 675 19 b 575 131 589 19 575 60 b 792 956 575 374 736 911 b 718 1000 764 983 738 1000 b 651 961 700 1000 679 988 b 260 456 565 881 401 668 b 160 465 224 461 190 465 b 15 393 89 465 35 446 z m 674 913 b 507 400 617 785 547 583 b 328 443 454 413 390 429 b 674 913 457 674 588 860 z m 621 1082 b 764 1161 663 1119 707 1140 b 867 1033 808 1119 840 1086 b 890 1076 883 1042 890 1058 b 765 1231 890 1136 810 1231 b 607 1108 728 1231 607 1163 b 621 1082 607 1100 610 1089 z "},"Ä":{"ha":807,"x_min":0,"x_max":0,"o":"m 64 393 b 214 386 99 393 146 392 b 3 -49 96 201 3 28 b 50 -121 3 -67 8 -97 b 292 379 119 43 204 218 b 497 351 349 372 415 364 b 474 144 482 275 474 204 b 582 -42 474 32 506 -42 b 822 211 674 -42 767 63 l 808 225 b 626 19 736 85 675 19 b 575 131 589 19 575 60 b 792 956 575 374 736 911 b 718 1000 764 983 738 1000 b 651 961 700 1000 679 988 b 260 456 565 881 401 668 b 160 465 224 461 190 465 b 15 393 89 465 35 446 z m 674 913 b 507 400 617 785 547 583 b 328 443 454 413 390 429 b 674 913 457 674 588 860 z m 649 1075 b 731 1143 689 1075 731 1111 b 689 1182 731 1172 714 1182 b 597 1117 649 1182 597 1151 b 649 1075 597 1088 621 1075 z m 849 1046 b 931 1114 889 1046 931 1082 b 889 1153 931 1143 914 1153 b 797 1088 849 1153 797 1122 b 849 1046 797 1058 821 1046 z "},"À":{"ha":807,"x_min":0,"x_max":0,"o":"m 64 393 b 214 386 99 393 146 392 b 3 -49 96 201 3 28 b 50 -121 3 -67 8 -97 b 292 379 119 43 204 218 b 497 351 349 372 415 364 b 474 144 482 275 474 204 b 582 -42 474 32 506 -42 b 822 211 674 -42 767 63 l 808 225 b 626 19 736 85 675 19 b 575 131 589 19 575 60 b 792 956 575 374 736 911 b 718 1000 764 983 738 1000 b 651 961 700 1000 679 988 b 260 456 565 881 401 668 b 160 465 224 461 190 465 b 15 393 89 465 35 446 z m 674 913 b 507 400 617 785 547 583 b 328 443 454 413 390 429 b 674 913 457 674 588 860 z m 631 1200 b 786 1039 697 1142 746 1093 b 806 1075 800 1046 806 1067 b 661 1243 806 1107 717 1243 b 631 1200 646 1243 633 1233 z "},"Å":{"ha":807,"x_min":0,"x_max":0,"o":"m 64 393 b 214 386 99 393 146 392 b 3 -49 96 201 3 28 b 50 -121 3 -67 8 -97 b 292 379 119 43 204 218 b 497 351 349 372 415 364 b 474 144 482 275 474 204 b 582 -42 474 32 506 -42 b 822 211 674 -42 767 63 l 808 225 b 626 19 736 85 675 19 b 575 131 589 19 575 60 b 792 956 575 374 736 911 b 718 1000 764 983 738 1000 b 651 961 700 1000 679 988 b 260 456 565 881 401 668 b 160 465 224 461 190 465 b 15 393 89 465 35 446 z m 674 913 b 507 400 617 785 547 583 b 328 443 454 413 390 429 b 674 913 457 674 588 860 z m 824 1278 b 654 1122 729 1278 654 1189 b 754 1047 654 1081 682 1047 b 929 1203 849 1047 929 1136 b 824 1278 929 1244 900 1278 z m 817 1246 b 878 1194 858 1246 878 1221 b 767 1075 878 1146 821 1075 b 708 1132 726 1075 708 1107 b 817 1246 708 1182 761 1246 z "},"Ã":{"ha":807,"x_min":0,"x_max":0,"o":"m 64 393 b 214 386 99 393 146 392 b 3 -49 96 201 3 28 b 50 -121 3 -67 8 -97 b 292 379 119 43 204 218 b 497 351 349 372 415 364 b 474 144 482 275 474 204 b 582 -42 474 32 506 -42 b 822 211 674 -42 767 63 l 808 225 b 626 19 736 85 675 19 b 575 131 589 19 575 60 b 792 956 575 374 736 911 b 718 1000 764 983 738 1000 b 651 961 700 1000 679 988 b 260 456 565 881 401 668 b 160 465 224 461 190 465 b 15 393 89 465 35 446 z m 674 913 b 507 400 617 785 547 583 b 328 443 454 413 390 429 b 674 913 457 674 588 860 z m 544 1054 b 608 1065 565 1063 586 1065 b 863 1011 696 1065 783 1011 b 971 1061 901 1011 938 1024 b 929 1057 957 1058 943 1057 b 660 1118 826 1057 738 1118 b 544 1054 618 1118 581 1101 z "},"B":{"ha":883,"x_min":0,"x_max":0,"o":"m 785 779 b 464 1000 785 972 588 1000 b 135 924 319 1000 228 963 b 179 886 135 910 165 886 b 371 961 197 886 254 940 b 76 182 249 724 104 274 b 57 103 69 158 57 125 b 139 36 57 65 93 36 b 264 483 181 179 221 333 b 368 485 294 483 332 485 b 718 310 526 485 718 461 b 165 -19 718 142 485 -19 b 35 -6 71 -19 47 -6 b 28 -10 31 -6 28 -7 b 182 -121 28 -89 81 -121 b 783 285 389 -121 783 14 b 467 508 783 372 742 492 b 785 779 610 532 785 597 z m 467 971 b 701 790 586 971 701 935 b 272 515 701 588 475 522 b 440 969 321 681 374 839 b 467 971 449 971 457 971 z "},"C":{"ha":682,"x_min":0,"x_max":0,"o":"m 575 957 b 643 894 622 957 643 932 b 494 615 643 815 551 679 b 538 583 506 592 522 583 b 699 879 614 583 699 771 b 571 999 699 965 646 999 b 0 218 307 999 0 585 b 274 -121 0 49 76 -121 b 704 211 460 -121 611 29 l 685 225 b 307 -74 611 67 454 -74 b 111 194 167 -74 111 57 b 575 957 111 507 375 957 z "},"Ç":{"ha":682,"x_min":0,"x_max":0,"o":"m 575 957 b 643 894 622 957 643 932 b 494 615 643 815 551 679 b 538 583 506 592 522 583 b 699 879 614 583 699 771 b 571 999 699 965 646 999 b 0 218 307 999 0 585 b 274 -121 0 49 76 -121 b 496 -44 354 -121 429 -92 b 471 -83 482 -64 471 -81 b 490 -108 471 -93 478 -108 b 608 -51 507 -108 571 -51 b 632 -86 626 -51 632 -72 b 517 -207 632 -135 569 -207 b 458 -144 493 -207 468 -189 b 428 -190 438 -160 428 -176 b 513 -240 428 -217 458 -240 b 675 -85 599 -240 675 -164 b 613 -26 675 -46 654 -26 b 519 -60 568 -26 539 -46 l 574 24 b 704 211 625 78 668 142 l 685 225 b 307 -74 611 67 454 -74 b 111 194 167 -74 111 57 b 575 957 111 507 375 957 z "},"D":{"ha":867,"x_min":0,"x_max":0,"o":"m 738 635 b 172 -85 738 290 467 -85 b 113 -79 154 -85 138 -83 b 413 864 171 189 297 599 b 374 878 399 874 386 878 b 265 747 318 878 276 776 b 25 -58 225 640 81 206 b 174 -121 61 -110 115 -121 b 840 619 499 -121 840 218 b 494 1000 840 833 743 1000 b 58 718 256 1000 58 847 b 142 640 58 675 81 640 b 135 692 138 653 135 669 b 453 963 135 844 271 963 b 738 635 621 963 738 860 z "},"E":{"ha":682,"x_min":0,"x_max":0,"o":"m 554 967 b 653 876 619 967 653 933 b 536 683 653 804 601 740 b 588 639 547 660 567 639 b 699 849 633 639 699 744 b 540 999 699 944 643 999 b 254 711 375 999 254 858 b 360 492 254 633 288 551 b 0 132 160 472 0 303 b 271 -121 0 -6 104 -121 b 704 211 457 -121 607 22 l 685 225 b 307 -74 611 67 454 -74 b 129 128 176 -74 129 36 b 436 478 129 275 250 447 b 356 688 369 535 356 621 b 554 967 356 839 425 967 z "},"É":{"ha":682,"x_min":0,"x_max":0,"o":"m 554 967 b 653 876 619 967 653 933 b 536 683 653 804 601 740 b 588 639 547 660 567 639 b 699 849 633 639 699 744 b 540 999 699 944 643 999 b 254 711 375 999 254 858 b 360 492 254 633 288 551 b 0 132 160 472 0 303 b 271 -121 0 -6 104 -121 b 704 211 457 -121 607 22 l 685 225 b 307 -74 611 67 454 -74 b 129 128 176 -74 129 36 b 436 478 129 275 250 447 b 356 688 369 535 356 621 b 554 967 356 839 425 967 z m 772 1200 b 742 1243 769 1233 757 1243 b 597 1075 686 1243 597 1107 b 617 1039 597 1067 603 1046 b 772 1200 657 1093 706 1142 z "},"Ê":{"ha":682,"x_min":0,"x_max":0,"o":"m 554 967 b 653 876 619 967 653 933 b 536 683 653 804 601 740 b 588 639 547 660 567 639 b 699 849 633 639 699 744 b 540 999 699 944 643 999 b 254 711 375 999 254 858 b 360 492 254 633 288 551 b 0 132 160 472 0 303 b 271 -121 0 -6 104 -121 b 704 211 457 -121 607 22 l 685 225 b 307 -74 611 67 454 -74 b 129 128 176 -74 129 36 b 436 478 129 275 250 447 b 356 688 369 535 356 621 b 554 967 356 839 425 967 z m 500 1082 b 643 1161 542 1119 586 1140 b 746 1033 688 1119 719 1086 b 769 1076 763 1042 769 1058 b 644 1231 769 1136 689 1231 b 486 1108 607 1231 486 1163 b 500 1082 486 1100 489 1089 z "},"Ë":{"ha":682,"x_min":0,"x_max":0,"o":"m 554 967 b 653 876 619 967 653 933 b 536 683 653 804 601 740 b 588 639 547 660 567 639 b 699 849 633 639 699 744 b 540 999 699 944 643 999 b 254 711 375 999 254 858 b 360 492 254 633 288 551 b 0 132 160 472 0 303 b 271 -121 0 -6 104 -121 b 704 211 457 -121 607 22 l 685 225 b 307 -74 611 67 454 -74 b 129 128 176 -74 129 36 b 436 478 129 275 250 447 b 356 688 369 535 356 621 b 554 967 356 839 425 967 z m 507 1075 b 589 1143 547 1075 589 1111 b 547 1182 589 1172 572 1182 b 456 1117 507 1182 456 1151 b 507 1075 456 1088 479 1075 z m 707 1046 b 789 1114 747 1046 789 1082 b 747 1153 789 1143 772 1153 b 656 1088 707 1153 656 1122 b 707 1046 656 1058 679 1046 z "},"È":{"ha":682,"x_min":0,"x_max":0,"o":"m 554 967 b 653 876 619 967 653 933 b 536 683 653 804 601 740 b 588 639 547 660 567 639 b 699 849 633 639 699 744 b 540 999 699 944 643 999 b 254 711 375 999 254 858 b 360 492 254 633 288 551 b 0 132 160 472 0 303 b 271 -121 0 -6 104 -121 b 704 211 457 -121 607 22 l 685 225 b 307 -74 611 67 454 -74 b 129 128 176 -74 129 36 b 436 478 129 275 250 447 b 356 688 369 535 356 621 b 554 967 356 839 425 967 z m 447 1200 b 603 1039 514 1142 563 1093 b 622 1075 617 1046 622 1067 b 478 1243 622 1107 533 1243 b 447 1200 463 1243 450 1233 z "},"Ð":{"ha":885,"x_min":0,"x_max":0,"o":"m 4 381 b 161 394 68 390 108 394 b 39 -58 114 242 65 71 b 188 -121 75 -110 129 -121 b 854 619 513 -121 854 218 b 508 1000 854 833 757 1000 b 72 718 269 1000 72 847 b 156 640 72 675 94 640 b 149 692 151 653 149 669 b 467 963 149 844 285 963 b 751 635 635 963 751 860 b 186 -85 751 290 481 -85 b 126 -79 168 -85 151 -83 b 256 396 156 56 201 225 l 357 396 b 500 436 396 396 454 403 b 272 449 460 440 368 449 b 426 864 321 599 375 746 b 388 878 413 874 400 878 b 279 747 332 878 290 776 b 178 446 261 699 221 583 b 4 381 88 440 19 422 z "},"€":{"ha":829,"x_min":0,"x_max":0,"o":"m 75 361 l 164 372 b 153 310 160 351 156 331 b 0 215 68 304 3 279 l 47 222 b 147 235 86 228 117 232 l 147 218 b 421 -121 147 49 224 -121 b 851 211 607 -121 758 29 l 832 225 b 454 -74 758 67 601 -74 b 258 194 314 -74 258 57 b 260 242 258 210 258 225 b 510 289 451 244 479 246 b 269 311 443 290 361 306 b 283 379 274 333 278 357 b 538 428 479 383 507 385 b 304 449 472 429 393 443 b 722 957 388 706 572 957 b 790 894 769 957 790 932 b 642 615 790 815 699 679 b 685 583 653 592 669 583 b 846 879 761 583 846 771 b 718 999 846 965 793 999 b 183 450 508 999 274 739 b 28 354 97 443 31 419 z "},"F":{"ha":589,"x_min":0,"x_max":0,"o":"m 108 431 b 215 443 150 436 182 440 b 79 -11 151 269 79 88 b 174 -121 79 -72 89 -114 b 246 242 175 -54 190 56 l 307 449 b 571 497 513 453 540 454 b 328 519 504 499 421 514 b 461 913 374 664 424 821 b 658 889 546 904 615 889 b 815 986 707 889 747 908 b 713 972 782 976 751 972 b 436 993 625 972 533 993 b 54 749 225 993 54 893 b 146 640 54 690 82 651 b 128 750 133 676 128 708 b 350 919 128 865 171 919 b 404 917 368 919 386 918 b 243 521 350 804 294 663 b 61 424 143 518 65 494 z "},"G":{"ha":750,"x_min":0,"x_max":0,"o":"m 588 -121 b 582 -12 586 -83 582 -50 b 667 326 582 54 596 142 l 676 371 b 442 436 614 386 519 436 b 347 364 393 436 360 417 b 432 365 382 364 407 365 b 575 347 468 365 507 363 b 297 -74 561 165 443 -74 b 111 196 190 -74 111 28 b 575 957 111 504 375 957 b 658 883 636 957 658 925 b 550 671 658 808 589 699 b 593 639 561 647 578 639 b 715 842 660 639 715 744 b 571 999 715 924 676 999 b 0 224 307 999 0 581 b 260 -121 0 6 114 -121 b 522 43 369 -121 456 -50 b 513 -21 515 19 513 -1 b 588 -121 513 -71 542 -103 z "},"H":{"ha":760,"x_min":0,"x_max":0,"o":"m 817 1000 b 740 928 776 1000 750 949 b 600 511 715 875 654 689 b 364 524 529 518 451 524 b 283 521 336 524 308 522 l 392 874 b 403 933 397 892 403 913 b 339 1000 403 967 389 1000 b 61 732 235 1000 61 858 b 144 653 61 688 83 653 b 138 700 140 665 138 683 b 310 961 138 792 219 961 b 329 942 326 961 329 956 b 310 860 329 914 317 881 b 192 511 263 724 224 608 b 76 426 124 497 78 472 l 168 436 b 15 -121 69 133 38 7 b 111 -32 44 -121 92 -96 b 260 444 122 6 192 229 b 583 454 342 451 414 453 b 510 197 551 350 524 253 b 476 -12 488 111 476 36 b 572 -121 476 -83 500 -114 b 569 -71 571 -108 569 -93 b 615 265 569 -3 582 107 b 658 456 626 322 642 388 b 775 500 694 456 733 457 b 671 506 742 500 707 504 b 817 1000 719 694 778 897 z "},"I":{"ha":654,"x_min":0,"x_max":0,"o":"m 167 890 b 479 918 269 910 335 915 b 226 -11 422 756 328 207 b 0 -122 110 -11 10 -21 b 418 -99 135 -96 268 -100 b 575 -39 457 -99 521 -93 b 274 -12 488 -37 369 -18 b 390 225 325 22 360 106 b 528 918 436 410 510 821 b 679 919 571 919 621 919 b 814 968 717 919 769 924 b 450 997 749 978 588 997 b 167 890 263 997 179 961 z "},"Í":{"ha":654,"x_min":0,"x_max":0,"o":"m 167 890 b 479 918 269 910 335 915 b 226 -11 422 756 328 207 b 0 -122 110 -11 10 -21 b 418 -99 135 -96 268 -100 b 575 -39 457 -99 521 -93 b 274 -12 488 -37 369 -18 b 390 225 325 22 360 106 b 528 918 436 410 510 821 b 679 919 571 919 621 919 b 814 968 717 919 769 924 b 450 997 749 978 588 997 b 167 890 263 997 179 961 z m 703 1200 b 672 1243 700 1233 688 1243 b 528 1075 617 1243 528 1107 b 547 1039 528 1067 533 1046 b 703 1200 588 1093 636 1142 z "},"Î":{"ha":654,"x_min":0,"x_max":0,"o":"m 167 890 b 479 918 269 910 335 915 b 226 -11 422 756 328 207 b 0 -122 110 -11 10 -21 b 418 -99 135 -96 268 -100 b 575 -39 457 -99 521 -93 b 274 -12 488 -37 369 -18 b 390 225 325 22 360 106 b 528 918 436 410 510 821 b 679 919 571 919 621 919 b 814 968 717 919 769 924 b 450 997 749 978 588 997 b 167 890 263 997 179 961 z m 433 1082 b 576 1161 475 1119 519 1140 b 679 1033 621 1119 653 1086 b 703 1076 696 1042 703 1058 b 578 1231 703 1136 622 1231 b 419 1108 540 1231 419 1163 b 433 1082 419 1100 422 1089 z "},"Ï":{"ha":654,"x_min":0,"x_max":0,"o":"m 167 890 b 479 918 269 910 335 915 b 226 -11 422 756 328 207 b 0 -122 110 -11 10 -21 b 418 -99 135 -96 268 -100 b 575 -39 457 -99 521 -93 b 274 -12 488 -37 369 -18 b 390 225 325 22 360 106 b 528 918 436 410 510 821 b 679 919 571 919 621 919 b 814 968 717 919 769 924 b 450 997 749 978 588 997 b 167 890 263 997 179 961 z m 439 1075 b 521 1143 479 1075 521 1111 b 479 1182 521 1172 504 1182 b 388 1117 439 1182 388 1151 b 439 1075 388 1088 411 1075 z m 639 1046 b 721 1114 679 1046 721 1082 b 679 1153 721 1143 704 1153 b 588 1088 639 1153 588 1122 b 639 1046 588 1058 611 1046 z "},"Ì":{"ha":654,"x_min":0,"x_max":0,"o":"m 167 890 b 479 918 269 910 335 915 b 226 -11 422 756 328 207 b 0 -122 110 -11 10 -21 b 418 -99 135 -96 268 -100 b 575 -39 457 -99 521 -93 b 274 -12 488 -37 369 -18 b 390 225 325 22 360 106 b 528 918 436 410 510 821 b 679 919 571 919 621 919 b 814 968 717 919 769 924 b 450 997 749 978 588 997 b 167 890 263 997 179 961 z m 378 1200 b 533 1039 444 1142 493 1093 b 553 1075 547 1046 553 1067 b 408 1243 553 1107 464 1243 b 378 1200 393 1243 381 1233 z "},"J":{"ha":581,"x_min":0,"x_max":0,"o":"m 235 899 b 515 926 322 919 378 925 b 306 75 481 743 379 278 b 182 -71 264 -39 229 -71 b 94 61 125 -71 94 -22 b 144 283 94 124 111 199 b 106 294 131 290 118 294 b 0 61 40 294 0 169 b 150 -119 0 -94 85 -119 b 378 85 232 -119 304 -81 b 575 861 488 329 575 800 b 546 926 575 882 565 911 b 644 928 575 926 607 928 b 751 968 674 928 731 933 b 461 997 700 978 571 997 b 235 899 311 997 244 961 z "},"K":{"ha":761,"x_min":0,"x_max":0,"o":"m 772 1000 b 393 601 686 863 517 700 b 274 496 343 561 300 532 l 390 874 b 401 933 396 892 401 913 b 338 1000 401 967 388 1000 b 60 732 233 1000 60 858 b 143 653 60 688 82 653 b 136 700 139 665 136 683 b 308 961 136 792 218 961 b 342 928 333 961 342 947 b 324 860 342 906 329 875 b -14 -96 106 224 44 33 b 110 -32 32 -96 90 -96 l 244 404 b 632 -121 326 222 531 -121 b 707 -75 664 -121 694 -100 b 279 447 469 119 392 257 b 785 939 453 564 785 797 b 772 1000 785 954 781 989 z "},"L":{"ha":910,"x_min":0,"x_max":0,"o":"m 140 -74 b 294 8 199 -74 249 -43 b 656 -121 419 -47 554 -121 b 801 -3 722 -121 771 -89 b 703 -25 772 -18 742 -25 b 335 61 600 -25 463 22 b 535 539 415 182 478 368 l 557 539 b 890 858 786 539 890 731 b 756 1000 890 969 811 1000 b 457 585 615 1000 529 806 b 378 728 411 610 378 657 b 396 814 378 753 382 794 b 310 704 343 814 310 753 b 447 556 310 642 361 583 b 274 79 390 381 339 194 b 103 108 211 96 151 108 b 1 47 28 108 1 81 b 140 -74 1 1 50 -74 z m 765 965 b 815 896 792 965 815 949 b 543 565 815 786 711 567 b 765 965 614 779 679 965 z m 135 -33 b 38 46 78 -33 38 14 b 83 72 38 63 49 72 b 242 31 128 72 183 54 b 135 -33 211 -10 175 -33 z "},"M":{"ha":1040,"x_min":0,"x_max":0,"o":"m 1040 972 b 996 982 1022 979 1007 982 b 926 925 965 982 951 961 b 531 142 864 833 604 425 b 560 689 536 297 560 515 b 419 1000 560 940 510 1000 b 149 767 297 1000 149 889 b 222 653 149 721 169 653 b 219 696 221 665 219 678 b 392 949 219 808 274 949 b 439 913 431 949 439 933 b 425 856 439 892 431 868 b -15 -121 200 350 7 -71 b 463 836 86 -121 167 146 b 465 758 464 817 465 794 b 443 168 465 611 443 321 b 504 -1 443 61 454 -1 b 525 4 513 -1 514 0 b 897 783 582 174 764 613 b 758 35 825 511 758 256 b 872 -121 758 -79 776 -121 b 851 -7 860 -75 851 -69 b 978 778 851 169 919 550 b 1040 972 1001 872 1026 939 z "},"N":{"ha":803,"x_min":0,"x_max":0,"o":"m 858 1000 b 771 932 817 1000 781 956 b 547 100 749 881 586 361 b 486 567 533 190 507 382 b 325 1000 461 790 436 1000 b 47 732 218 1000 47 858 b 131 653 47 688 69 653 b 124 701 126 665 124 683 b 285 949 124 792 194 949 b 306 917 300 949 306 935 b 296 860 306 896 299 869 b 1 -121 129 293 47 56 b 347 818 86 -121 124 17 b 474 -8 372 642 446 139 b 582 -121 489 -92 524 -121 b 858 1000 585 96 761 743 z "},"Ñ":{"ha":803,"x_min":0,"x_max":0,"o":"m 858 1000 b 771 932 817 1000 781 956 b 547 100 749 881 586 361 b 486 567 533 190 507 382 b 325 1000 461 790 436 1000 b 47 732 218 1000 47 858 b 131 653 47 688 69 653 b 124 701 126 665 124 683 b 285 949 124 792 194 949 b 306 917 300 949 306 935 b 296 860 306 896 299 869 b 1 -121 129 293 47 56 b 347 818 86 -121 124 17 b 474 -8 372 642 446 139 b 582 -121 489 -92 524 -121 b 858 1000 585 96 761 743 z m 368 1054 b 432 1065 389 1063 410 1065 b 686 1011 519 1065 607 1011 b 794 1061 725 1011 761 1024 b 753 1057 781 1058 767 1057 b 483 1118 650 1057 561 1118 b 368 1054 442 1118 404 1101 z "},"O":{"ha":858,"x_min":0,"x_max":0,"o":"m 658 982 b 575 999 638 993 610 999 b 0 224 310 999 0 581 b 267 -121 0 15 108 -121 b 807 663 490 -121 807 157 b 689 931 807 771 785 931 b 438 664 597 931 438 763 b 504 596 438 633 457 607 b 692 893 526 700 624 893 b 754 701 739 893 754 778 b 308 -74 754 372 568 -74 b 122 204 176 -74 122 56 b 643 982 122 542 404 982 z "},"Œ":{"ha":1104,"x_min":0,"x_max":0,"o":"m 658 982 b 575 999 638 993 610 999 b 0 224 310 999 0 581 b 299 -121 0 -12 122 -121 b 539 -122 379 -121 463 -122 b 953 -57 711 -122 935 -104 b 925 -56 947 -56 938 -56 b 760 -61 879 -56 796 -61 b 528 -58 671 -61 600 -61 b 756 428 663 25 703 190 b 858 425 782 426 808 425 b 1051 493 971 425 1036 451 b 769 507 986 503 882 507 b 788 758 776 551 788 671 b 772 867 788 797 778 850 b 883 863 810 867 839 863 b 1119 913 996 863 1104 871 b 850 936 1069 929 960 936 b 692 931 794 936 738 933 b 438 664 597 931 438 763 b 504 596 438 633 457 607 b 669 878 558 731 626 878 b 711 701 694 878 711 829 b 308 -74 711 372 532 -74 b 122 204 176 -74 122 56 b 643 982 122 542 404 982 z "},"Ó":{"ha":858,"x_min":0,"x_max":0,"o":"m 658 982 b 575 999 638 993 610 999 b 0 224 310 999 0 581 b 267 -121 0 15 108 -121 b 807 663 490 -121 807 157 b 689 931 807 771 785 931 b 438 664 597 931 438 763 b 504 596 438 633 457 607 b 692 893 526 700 624 893 b 754 701 739 893 754 778 b 308 -74 754 372 568 -74 b 122 204 176 -74 122 56 b 643 982 122 542 404 982 z m 929 1200 b 899 1243 926 1233 914 1243 b 754 1075 843 1243 754 1107 b 774 1039 754 1067 760 1046 b 929 1200 814 1093 863 1142 z "},"Ô":{"ha":858,"x_min":0,"x_max":0,"o":"m 658 982 b 575 999 638 993 610 999 b 0 224 310 999 0 581 b 267 -121 0 15 108 -121 b 807 663 490 -121 807 157 b 689 931 807 771 785 931 b 438 664 597 931 438 763 b 504 596 438 633 457 607 b 692 893 526 700 624 893 b 754 701 739 893 754 778 b 308 -74 754 372 568 -74 b 122 204 176 -74 122 56 b 643 982 122 542 404 982 z m 564 1082 b 707 1161 606 1119 650 1140 b 810 1033 751 1119 783 1086 b 833 1076 826 1042 833 1058 b 708 1231 833 1136 753 1231 b 550 1108 671 1231 550 1163 b 564 1082 550 1100 553 1089 z "},"Ö":{"ha":858,"x_min":0,"x_max":0,"o":"m 658 982 b 575 999 638 993 610 999 b 0 224 310 999 0 581 b 267 -121 0 15 108 -121 b 807 663 490 -121 807 157 b 689 931 807 771 785 931 b 438 664 597 931 438 763 b 504 596 438 633 457 607 b 692 893 526 700 624 893 b 754 701 739 893 754 778 b 308 -74 754 372 568 -74 b 122 204 176 -74 122 56 b 643 982 122 542 404 982 z m 564 1075 b 646 1143 604 1075 646 1111 b 604 1182 646 1172 629 1182 b 513 1117 564 1182 513 1151 b 564 1075 513 1088 536 1075 z m 764 1046 b 846 1114 804 1046 846 1082 b 804 1153 846 1143 829 1153 b 713 1088 764 1153 713 1122 b 764 1046 713 1058 736 1046 z "},"Ò":{"ha":858,"x_min":0,"x_max":0,"o":"m 658 982 b 575 999 638 993 610 999 b 0 224 310 999 0 581 b 267 -121 0 15 108 -121 b 807 663 490 -121 807 157 b 689 931 807 771 785 931 b 438 664 597 931 438 763 b 504 596 438 633 457 607 b 692 893 526 700 624 893 b 754 701 739 893 754 778 b 308 -74 754 372 568 -74 b 122 204 176 -74 122 56 b 643 982 122 542 404 982 z m 578 1200 b 733 1039 644 1142 693 1093 b 753 1075 747 1046 753 1067 b 608 1243 753 1107 664 1243 b 578 1200 593 1243 581 1233 z "},"Ø":{"ha":858,"x_min":0,"x_max":0,"o":"m 658 982 b 575 999 638 993 610 999 b 0 224 310 999 0 581 b 99 -54 0 101 36 4 b 13 -137 64 -93 35 -122 b 35 -140 19 -139 26 -140 b 154 -94 69 -140 111 -125 b 267 -121 188 -111 225 -121 b 807 663 490 -121 807 157 b 796 786 807 700 804 744 b 893 931 846 858 881 913 b 871 932 886 932 879 932 b 767 893 829 932 779 913 l 761 886 b 689 931 744 913 721 931 b 438 664 597 931 438 763 b 504 596 438 633 457 607 b 692 893 526 700 624 893 b 735 844 711 893 725 872 b 161 17 606 646 344 244 b 122 204 133 67 122 133 b 643 982 122 542 404 982 z m 303 64 b 754 724 383 179 606 504 l 754 701 b 308 -74 754 372 568 -74 b 213 -44 269 -74 239 -62 b 303 64 243 -15 272 21 z "},"Õ":{"ha":858,"x_min":0,"x_max":0,"o":"m 658 982 b 575 999 638 993 610 999 b 0 224 310 999 0 581 b 267 -121 0 15 108 -121 b 807 663 490 -121 807 157 b 689 931 807 771 785 931 b 438 664 597 931 438 763 b 504 596 438 633 457 607 b 692 893 526 700 624 893 b 754 701 739 893 754 778 b 308 -74 754 372 568 -74 b 122 204 176 -74 122 56 b 643 982 122 542 404 982 z m 493 1054 b 557 1065 514 1063 535 1065 b 811 1011 644 1065 732 1011 b 919 1061 850 1011 886 1024 b 878 1057 906 1058 892 1057 b 608 1118 775 1057 686 1118 b 493 1054 567 1118 529 1101 z "},"P":{"ha":706,"x_min":0,"x_max":0,"o":"m 269 411 b 799 732 360 411 799 442 b 442 1000 799 910 606 1000 b 135 924 325 1000 206 954 b 178 886 135 910 167 886 b 371 963 193 886 264 942 b 29 25 228 639 146 388 b 10 -51 21 1 10 -31 b 106 -121 10 -92 58 -121 b 256 411 149 26 200 221 z m 706 756 b 261 433 706 543 465 444 b 454 971 321 638 386 836 b 706 756 585 969 706 906 z "},"Q":{"ha":854,"x_min":0,"x_max":0,"o":"m 550 1000 b 0 276 249 1000 0 622 b 107 83 0 176 21 83 b 96 200 99 122 96 161 b 551 963 96 519 283 963 b 735 707 681 963 735 858 b 476 18 735 510 642 167 b 256 107 401 64 332 107 b 154 35 182 107 154 67 b 307 -87 154 4 179 -87 b 446 -51 354 -87 401 -74 b 668 -165 513 -108 582 -165 b 804 -53 711 -165 775 -151 b 724 -69 776 -61 764 -69 b 518 -6 647 -69 581 -40 b 832 663 699 135 832 429 b 550 1000 832 869 728 1000 z m 307 -53 b 190 33 213 -53 190 8 b 242 71 190 49 199 71 b 415 -24 303 71 358 26 b 307 -53 382 -42 346 -53 z "},"R":{"ha":775,"x_min":0,"x_max":0,"o":"m 707 -122 b 281 439 469 71 394 243 b 799 740 376 439 799 465 b 447 1000 799 925 607 1000 b 135 924 322 1000 206 954 b 178 886 135 910 167 886 b 385 965 196 886 267 946 b 33 25 242 640 151 389 b 14 -51 25 1 14 -31 b 106 -121 14 -92 58 -121 b 249 385 147 21 196 203 b 636 -168 332 189 532 -168 b 707 -122 663 -168 696 -146 z m 706 769 b 271 461 706 561 472 474 b 457 971 329 656 393 843 b 706 769 582 971 706 921 z "},"S":{"ha":785,"x_min":0,"x_max":0,"o":"m 147 629 b 569 136 147 381 569 375 b 311 -67 569 3 436 -67 b 99 128 167 -67 99 25 b 175 314 99 192 125 260 b -3 128 99 314 -3 272 b 288 -121 -3 -40 136 -121 b 650 175 458 -121 650 -17 b 235 661 650 458 235 454 b 540 967 235 776 365 967 b 618 907 600 967 618 944 b 536 615 618 826 536 693 b 582 556 536 585 549 563 b 689 861 626 626 689 760 b 543 1000 689 940 651 1000 b 147 629 301 1000 147 783 z "},"Š":{"ha":785,"x_min":0,"x_max":0,"o":"m 147 629 b 569 136 147 381 569 375 b 311 -67 569 3 436 -67 b 99 128 167 -67 99 25 b 175 314 99 192 125 260 b -3 128 99 314 -3 272 b 288 -121 -3 -40 136 -121 b 650 175 458 -121 650 -17 b 235 661 650 458 235 454 b 540 967 235 776 365 967 b 618 907 600 967 618 944 b 536 615 618 826 536 693 b 582 556 536 585 549 563 b 689 861 626 626 689 760 b 543 1000 689 940 651 1000 b 147 629 301 1000 147 783 z m 742 1182 b 599 1103 700 1144 656 1124 b 496 1231 554 1144 522 1178 b 472 1188 479 1222 472 1206 b 597 1033 472 1128 553 1033 b 756 1156 635 1033 756 1101 b 742 1182 756 1164 753 1175 z "},"T":{"ha":519,"x_min":0,"x_max":0,"o":"m 7 878 b 396 906 128 899 203 903 b 113 181 297 694 175 363 b 61 -22 89 113 61 32 b 171 -121 61 -81 88 -121 b 169 -90 169 -111 169 -100 b 239 243 169 1 199 96 b 457 906 317 526 397 757 b 556 904 490 906 524 904 b 793 969 646 904 729 913 b 346 1000 658 971 536 1000 b 7 878 154 1000 14 971 z "},"Þ":{"ha":706,"x_min":0,"x_max":0,"o":"m 461 983 b 425 994 447 992 436 994 b 301 803 363 994 329 868 b 38 729 199 794 100 756 b 81 692 38 715 69 692 b 289 771 97 692 174 753 b 29 25 189 522 108 274 b 10 -51 21 0 10 -31 b 106 -121 10 -92 58 -121 b 200 217 135 -24 165 94 b 701 538 329 222 701 269 b 383 804 701 701 538 790 b 461 983 408 871 435 932 z m 608 561 b 207 243 608 364 400 265 b 372 775 258 425 314 615 b 608 561 497 769 608 706 z "},"U":{"ha":926,"x_min":0,"x_max":0,"o":"m 808 -104 b 697 58 729 -104 697 -69 b 953 956 697 319 906 924 b 883 1000 926 983 899 1000 b 642 311 808 1000 708 588 b 354 -65 606 163 507 -65 b 238 90 271 -65 238 4 b 408 832 238 283 408 628 b 265 1000 408 933 367 1000 b 0 749 121 1000 0 864 b 96 653 0 696 25 653 b 85 721 89 669 85 694 b 232 961 85 811 132 961 b 310 839 285 961 310 918 b 136 68 310 631 136 247 b 317 -121 136 -39 197 -121 b 617 136 451 -121 547 -15 b 604 10 608 81 604 35 b 717 -137 604 -69 647 -137 b 808 -104 743 -137 774 -128 z "},"Ú":{"ha":926,"x_min":0,"x_max":0,"o":"m 808 -104 b 697 58 729 -104 697 -69 b 953 956 697 319 906 924 b 883 1000 926 983 899 1000 b 642 311 808 1000 708 588 b 354 -65 606 163 507 -65 b 238 90 271 -65 238 4 b 408 832 238 283 408 628 b 265 1000 408 933 367 1000 b 0 749 121 1000 0 864 b 96 653 0 696 25 653 b 85 721 89 669 85 694 b 232 961 85 811 132 961 b 310 839 285 961 310 918 b 136 68 310 631 136 247 b 317 -121 136 -39 197 -121 b 617 136 451 -121 547 -15 b 604 10 608 81 604 35 b 717 -137 604 -69 647 -137 b 808 -104 743 -137 774 -128 z m 783 1200 b 753 1243 781 1233 768 1243 b 608 1075 697 1243 608 1107 b 628 1039 608 1067 614 1046 b 783 1200 668 1093 717 1142 z "},"Û":{"ha":926,"x_min":0,"x_max":0,"o":"m 808 -104 b 697 58 729 -104 697 -69 b 953 956 697 319 906 924 b 883 1000 926 983 899 1000 b 642 311 808 1000 708 588 b 354 -65 606 163 507 -65 b 238 90 271 -65 238 4 b 408 832 238 283 408 628 b 265 1000 408 933 367 1000 b 0 749 121 1000 0 864 b 96 653 0 696 25 653 b 85 721 89 669 85 694 b 232 961 85 811 132 961 b 310 839 285 961 310 918 b 136 68 310 631 136 247 b 317 -121 136 -39 197 -121 b 617 136 451 -121 547 -15 b 604 10 608 81 604 35 b 717 -137 604 -69 647 -137 b 808 -104 743 -137 774 -128 z m 514 1082 b 657 1161 556 1119 600 1140 b 760 1033 701 1119 733 1086 b 783 1076 776 1042 783 1058 b 658 1231 783 1136 703 1231 b 500 1108 621 1231 500 1163 b 514 1082 500 1100 503 1089 z "},"Ü":{"ha":926,"x_min":0,"x_max":0,"o":"m 808 -104 b 697 58 729 -104 697 -69 b 953 956 697 319 906 924 b 883 1000 926 983 899 1000 b 642 311 808 1000 708 588 b 354 -65 606 163 507 -65 b 238 90 271 -65 238 4 b 408 832 238 283 408 628 b 265 1000 408 933 367 1000 b 0 749 121 1000 0 864 b 96 653 0 696 25 653 b 85 721 89 669 85 694 b 232 961 85 811 132 961 b 310 839 285 961 310 918 b 136 68 310 631 136 247 b 317 -121 136 -39 197 -121 b 617 136 451 -121 547 -15 b 604 10 608 81 604 35 b 717 -137 604 -69 647 -137 b 808 -104 743 -137 774 -128 z m 549 1075 b 631 1143 589 1075 631 1111 b 589 1182 631 1172 614 1182 b 497 1117 549 1182 497 1151 b 549 1075 497 1088 521 1075 z m 749 1046 b 831 1114 789 1046 831 1082 b 789 1153 831 1143 814 1153 b 697 1088 749 1153 697 1122 b 749 1046 697 1058 721 1046 z "},"Ù":{"ha":926,"x_min":0,"x_max":0,"o":"m 808 -104 b 697 58 729 -104 697 -69 b 953 956 697 319 906 924 b 883 1000 926 983 899 1000 b 642 311 808 1000 708 588 b 354 -65 606 163 507 -65 b 238 90 271 -65 238 4 b 408 832 238 283 408 628 b 265 1000 408 933 367 1000 b 0 749 121 1000 0 864 b 96 653 0 696 25 653 b 85 721 89 669 85 694 b 232 961 85 811 132 961 b 310 839 285 961 310 918 b 136 68 310 631 136 247 b 317 -121 136 -39 197 -121 b 617 136 451 -121 547 -15 b 604 10 608 81 604 35 b 717 -137 604 -69 647 -137 b 808 -104 743 -137 774 -128 z m 550 1200 b 706 1039 617 1142 665 1093 b 725 1075 719 1046 725 1067 b 581 1243 725 1107 636 1243 b 550 1200 565 1243 553 1233 z "},"V":{"ha":817,"x_min":0,"x_max":0,"o":"m 285 -78 b 246 -24 253 -78 246 -56 b 425 753 246 135 425 483 b 254 1000 425 903 369 1000 b 0 753 118 1000 0 867 b 99 653 0 699 26 653 b 86 728 90 672 86 699 b 229 961 86 819 126 961 b 313 767 311 961 313 869 b 138 -10 313 489 138 126 b 257 -121 138 -101 217 -121 b 863 810 486 -121 863 506 b 778 964 863 915 817 964 b 697 900 754 964 724 944 b 774 756 743 886 774 847 b 285 -78 774 451 442 -78 z "},"W":{"ha":1196,"x_min":0,"x_max":0,"o":"m 696 549 b 288 -78 672 364 428 -78 b 246 -24 254 -78 246 -58 b 425 753 246 136 425 483 b 254 1000 425 903 369 1000 b 0 753 118 1000 0 867 b 99 653 0 699 26 653 b 86 728 90 672 86 699 b 229 961 86 819 126 961 b 313 767 311 961 313 869 b 138 -10 313 489 138 126 b 257 -121 138 -101 217 -121 b 544 108 347 -121 450 -25 b 517 -17 528 56 517 11 b 636 -121 517 -89 583 -121 b 1242 810 865 -121 1242 506 b 1157 964 1242 915 1196 964 b 1076 900 1133 964 1103 944 b 1153 756 1122 886 1153 847 b 664 -78 1153 451 821 -78 b 625 -19 631 -78 625 -54 b 779 481 625 161 779 408 b 696 549 779 508 757 549 z "},"X":{"ha":850,"x_min":0,"x_max":0,"o":"m 794 1003 b 486 478 739 864 635 683 b 319 1000 482 760 501 1000 b 58 749 182 1000 58 864 b 154 653 58 696 83 653 b 143 721 147 669 143 694 b 288 961 143 818 194 961 b 369 650 365 961 367 864 b 383 342 372 472 375 464 b 68 -29 290 224 186 99 b 0 -156 26 -74 7 -96 b 388 275 61 -106 224 74 b 581 -121 399 107 426 -121 b 871 211 690 -121 765 -4 l 854 225 b 618 -69 754 47 674 -69 b 488 401 524 -69 494 165 b 826 936 668 632 826 861 b 794 1003 826 961 808 993 z "},"Y":{"ha":900,"x_min":0,"x_max":0,"o":"m 214 -25 b 131 -129 157 -44 131 -82 b 322 -260 131 -214 217 -260 b 724 269 590 -260 665 32 b 953 956 836 726 857 803 b 875 1000 926 983 893 1000 b 708 611 815 1000 757 813 b 414 265 646 450 543 265 b 317 399 344 265 317 318 b 410 860 317 547 410 756 b 265 1000 410 926 371 1000 b 0 749 121 1000 0 864 b 96 653 0 696 25 653 b 85 721 89 669 85 694 b 235 961 85 813 132 961 b 314 853 294 961 314 911 b 219 375 314 726 219 521 b 371 210 219 278 261 210 b 672 453 504 210 599 311 b 614 168 647 338 628 231 b 324 -225 585 38 511 -225 b 203 -100 243 -225 203 -176 b 214 -25 203 -79 206 -53 z "},"Ý":{"ha":900,"x_min":0,"x_max":0,"o":"m 214 -25 b 131 -129 157 -44 131 -82 b 322 -260 131 -214 217 -260 b 724 269 590 -260 665 32 b 953 956 836 726 857 803 b 875 1000 926 983 893 1000 b 708 611 815 1000 757 813 b 414 265 646 450 543 265 b 317 399 344 265 317 318 b 410 860 317 547 410 756 b 265 1000 410 926 371 1000 b 0 749 121 1000 0 864 b 96 653 0 696 25 653 b 85 721 89 669 85 694 b 235 961 85 813 132 961 b 314 853 294 961 314 911 b 219 375 314 726 219 521 b 371 210 219 278 261 210 b 672 453 504 210 599 311 b 614 168 647 338 628 231 b 324 -225 585 38 511 -225 b 203 -100 243 -225 203 -176 b 214 -25 203 -79 206 -53 z m 799 1200 b 768 1243 796 1233 783 1243 b 624 1075 713 1243 624 1107 b 643 1039 624 1067 629 1046 b 799 1200 683 1093 732 1142 z "},"Ÿ":{"ha":900,"x_min":0,"x_max":0,"o":"m 214 -25 b 131 -129 157 -44 131 -82 b 322 -260 131 -214 217 -260 b 724 269 590 -260 665 32 b 953 956 836 726 857 803 b 875 1000 926 983 893 1000 b 708 611 815 1000 757 813 b 414 265 646 450 543 265 b 317 399 344 265 317 318 b 410 860 317 547 410 756 b 265 1000 410 926 371 1000 b 0 749 121 1000 0 864 b 96 653 0 696 25 653 b 85 721 89 669 85 694 b 235 961 85 813 132 961 b 314 853 294 961 314 911 b 219 375 314 726 219 521 b 371 210 219 278 261 210 b 672 453 504 210 599 311 b 614 168 647 338 628 231 b 324 -225 585 38 511 -225 b 203 -100 243 -225 203 -176 b 214 -25 203 -79 206 -53 z m 543 1075 b 625 1143 583 1075 625 1111 b 583 1182 625 1172 608 1182 b 492 1117 543 1182 492 1151 b 543 1075 492 1088 515 1075 z m 743 1046 b 825 1114 783 1046 825 1082 b 783 1153 825 1143 808 1153 b 692 1088 743 1153 692 1122 b 743 1046 692 1058 715 1046 z "},"Z":{"ha":925,"x_min":0,"x_max":0,"o":"m 386 431 b 567 446 456 440 497 444 b 296 72 482 306 385 165 b 107 108 225 93 160 108 b 0 36 29 108 0 75 b 128 -75 0 -14 47 -75 b 306 3 183 -75 243 -46 b 656 -121 426 -53 558 -121 b 801 -3 722 -121 771 -89 b 703 -25 772 -18 742 -25 b 363 53 608 -25 482 15 b 665 449 467 153 574 299 b 849 497 790 451 818 453 b 701 510 806 497 757 504 b 882 865 778 642 842 769 b 951 914 903 876 925 892 b 907 911 938 911 925 911 b 426 1000 761 911 621 1000 b 158 813 261 1000 158 936 b 233 713 158 757 179 722 b 228 761 229 726 228 739 b 385 961 228 914 296 961 b 771 847 508 961 678 871 b 608 518 740 767 681 646 b 546 521 588 519 567 521 b 339 424 435 521 343 501 z m 121 -37 b 36 39 69 -37 36 8 b 88 72 36 57 47 72 b 249 28 131 72 188 53 b 121 -37 201 -12 157 -37 z "},"Ž":{"ha":925,"x_min":0,"x_max":0,"o":"m 386 431 b 567 446 456 440 497 444 b 296 72 482 306 385 165 b 107 108 225 93 160 108 b 0 36 29 108 0 75 b 128 -75 0 -14 47 -75 b 306 3 183 -75 243 -46 b 656 -121 426 -53 558 -121 b 801 -3 722 -121 771 -89 b 703 -25 772 -18 742 -25 b 363 53 608 -25 482 15 b 665 449 467 153 574 299 b 849 497 790 451 818 454 b 701 510 806 497 757 504 b 882 865 778 642 842 769 b 951 914 903 876 925 892 b 907 911 938 911 925 911 b 426 1000 761 911 621 1000 b 158 813 261 1000 158 936 b 233 713 158 757 179 722 b 228 761 229 726 228 739 b 385 961 228 914 296 961 b 771 847 508 961 678 871 b 608 518 740 767 681 646 b 546 521 588 519 567 521 b 339 424 435 521 343 501 z m 121 -37 b 36 39 69 -37 36 8 b 88 72 36 57 47 72 b 249 28 131 72 188 53 b 121 -37 201 -12 157 -37 z m 882 1182 b 739 1103 840 1144 796 1124 b 636 1231 694 1144 663 1178 b 613 1188 619 1222 613 1206 b 738 1033 613 1128 693 1033 b 896 1156 775 1033 896 1101 b 882 1182 896 1164 893 1175 z "},"a":{"ha":607,"x_min":0,"x_max":0,"o":"m 364 294 b 72 -8 296 194 158 -8 b 35 46 47 -8 35 8 b 321 439 35 181 190 439 b 389 361 371 439 389 403 b 382 313 389 346 386 328 b 450 372 422 313 450 326 b 324 476 450 435 396 476 b -61 50 143 476 -61 215 b 42 -65 -61 -28 -17 -65 b 251 96 110 -65 171 -11 b 247 56 249 81 247 67 b 347 -42 247 7 279 -42 b 622 211 446 -42 564 61 l 608 225 b 386 6 525 78 436 6 b 339 67 353 6 339 39 b 419 260 339 133 419 228 b 364 294 419 281 381 292 z "},"á":{"ha":607,"x_min":0,"x_max":0,"o":"m 364 294 b 72 -8 296 194 158 -8 b 35 46 47 -8 35 8 b 321 439 35 181 190 439 b 389 361 371 439 389 403 b 382 313 389 346 386 328 b 450 372 422 313 450 326 b 324 476 450 435 396 476 b -61 50 143 476 -61 215 b 42 -65 -61 -28 -17 -65 b 251 96 110 -65 171 -11 b 247 56 249 81 247 67 b 347 -42 247 7 279 -42 b 622 211 446 -42 564 61 l 608 225 b 386 6 525 78 436 6 b 339 67 353 6 339 39 b 419 260 339 133 419 228 b 364 294 419 281 381 292 z m 544 740 b 514 783 542 774 529 783 b 369 615 458 783 369 647 b 389 579 369 607 375 586 b 544 740 429 633 478 682 z "},"â":{"ha":607,"x_min":0,"x_max":0,"o":"m 364 294 b 72 -8 296 194 158 -8 b 35 46 47 -8 35 8 b 321 439 35 181 190 439 b 389 361 371 439 389 403 b 382 313 389 346 386 328 b 450 372 422 313 450 326 b 324 476 450 435 396 476 b -61 50 143 476 -61 215 b 42 -65 -61 -28 -17 -65 b 251 96 110 -65 171 -11 b 247 56 249 81 247 67 b 347 -42 247 7 279 -42 b 622 211 446 -42 564 61 l 608 225 b 386 6 525 78 436 6 b 339 67 353 6 339 39 b 419 260 339 133 419 228 b 364 294 419 281 381 292 z m 297 613 b 440 692 339 650 383 671 b 543 564 485 650 517 617 b 567 607 560 572 567 589 b 442 761 567 667 486 761 b 283 639 404 761 283 693 b 297 613 283 631 286 619 z "},"´":{"ha":175,"x_min":0,"x_max":0,"o":"m 297 731 b 267 774 294 764 282 774 b 122 606 211 774 122 638 b 142 569 122 597 128 576 b 297 731 182 624 231 672 z "},"ä":{"ha":607,"x_min":0,"x_max":0,"o":"m 364 294 b 72 -8 296 194 158 -8 b 35 46 47 -8 35 8 b 321 439 35 181 190 439 b 389 361 371 439 389 403 b 382 313 389 346 386 328 b 450 372 422 313 450 326 b 324 476 450 435 396 476 b -61 50 143 476 -61 215 b 42 -65 -61 -28 -17 -65 b 251 96 110 -65 171 -11 b 247 56 249 81 247 67 b 347 -42 247 7 279 -42 b 622 211 446 -42 564 61 l 608 225 b 386 6 525 78 436 6 b 339 67 353 6 339 39 b 419 260 339 133 419 228 b 364 294 419 281 381 292 z m 240 606 b 322 674 281 606 322 642 b 281 713 322 703 306 713 b 189 647 240 713 189 682 b 240 606 189 618 213 606 z m 440 576 b 522 644 481 576 522 613 b 481 683 522 674 506 683 b 389 618 440 683 389 653 b 440 576 389 589 413 576 z "},"æ":{"ha":756,"x_min":0,"x_max":0,"o":"m 688 415 b 601 500 688 483 644 500 b 419 418 540 500 476 468 b 324 476 407 454 375 476 b -61 50 143 476 -61 215 b 42 -65 -61 -28 -17 -65 b 249 92 108 -65 169 -12 b 418 -61 251 6 308 -61 b 775 213 556 -61 700 46 l 758 225 b 447 -21 689 92 565 -21 b 338 96 361 -21 338 39 b 343 146 338 110 339 128 b 688 415 501 161 688 274 z m 72 -8 b 35 46 47 -8 35 8 b 321 439 35 181 190 439 b 386 386 360 439 379 417 b 251 138 317 315 264 221 b 72 -8 190 60 122 -8 z m 597 457 b 626 425 621 457 626 446 b 350 172 626 306 449 207 b 597 457 388 304 508 457 z "},"à":{"ha":607,"x_min":0,"x_max":0,"o":"m 364 294 b 72 -8 296 194 158 -8 b 35 46 47 -8 35 8 b 321 439 35 181 190 439 b 389 361 371 439 389 403 b 382 313 389 346 386 328 b 450 372 422 313 450 326 b 324 476 450 435 396 476 b -61 50 143 476 -61 215 b 42 -65 -61 -28 -17 -65 b 251 96 110 -65 171 -11 b 247 56 249 81 247 67 b 347 -42 247 7 279 -42 b 622 211 446 -42 564 61 l 608 225 b 386 6 525 78 436 6 b 339 67 353 6 339 39 b 419 260 339 133 419 228 b 364 294 419 281 381 292 z m 271 731 b 426 569 338 672 386 624 b 446 606 440 576 446 597 b 301 774 446 638 357 774 b 271 731 286 774 274 764 z "},"&":{"ha":928,"x_min":0,"x_max":0,"o":"m 583 347 b 732 367 642 358 674 364 b 326 -74 707 146 524 -74 b 149 128 196 -74 149 36 b 456 478 149 275 269 447 b 375 688 389 535 375 621 b 575 971 375 836 444 971 b 669 874 640 971 669 931 b 556 683 669 801 621 740 b 607 639 567 660 586 639 b 713 851 653 639 713 747 b 561 999 713 947 661 999 b 274 711 394 999 274 858 b 379 492 274 633 307 551 b 19 132 179 472 19 303 b 290 -121 19 -6 124 -121 b 768 368 526 -121 742 114 b 849 369 790 368 817 368 b 907 414 867 369 886 371 b 694 438 850 415 776 438 b 550 340 617 438 553 418 z "},"å":{"ha":607,"x_min":0,"x_max":0,"o":"m 364 294 b 72 -8 296 194 158 -8 b 35 46 47 -8 35 8 b 321 439 35 181 190 439 b 389 361 371 439 389 403 b 382 313 389 346 386 328 b 450 372 422 313 450 326 b 324 476 450 435 396 476 b -61 50 143 476 -61 215 b 42 -65 -61 -28 -17 -65 b 251 96 110 -65 171 -11 b 247 56 249 81 247 67 b 347 -42 247 7 279 -42 b 622 211 446 -42 564 61 l 608 225 b 386 6 525 78 436 6 b 339 67 353 6 339 39 b 419 260 339 133 419 228 b 364 294 419 281 381 292 z m 444 782 b 275 626 350 782 275 693 b 375 551 275 585 303 551 b 550 707 469 551 550 640 b 444 782 550 749 521 782 z m 438 750 b 499 699 479 750 499 725 b 388 579 499 650 442 579 b 329 636 347 579 329 611 b 438 750 329 686 382 750 z "},"^":{"ha":283,"x_min":0,"x_max":0,"o":"m 14 613 b 157 692 56 650 100 671 b 260 564 201 650 233 617 b 283 607 276 572 283 589 b 158 761 283 667 203 761 b 0 639 121 761 0 693 b 14 613 0 631 3 619 z "},"~":{"ha":565,"x_min":0,"x_max":0,"o":"m 69 222 b 133 233 90 231 111 233 b 388 179 221 233 308 179 b 496 229 426 179 463 192 b 454 225 482 226 468 225 b 185 286 351 225 263 286 b 69 222 143 286 106 269 z "},"*":{"ha":726,"x_min":0,"x_max":0,"o":"m 200 567 b 343 739 249 567 296 647 b 467 561 390 668 443 589 b 394 749 467 658 426 699 l 575 765 b 456 806 546 797 500 806 b 383 801 429 806 404 803 b 476 997 418 876 460 951 b 344 817 414 982 386 907 b 250 997 306 876 283 926 b 231 961 242 988 231 978 b 297 801 231 925 258 865 b 135 794 226 799 181 797 b 258 749 144 753 211 749 l 294 749 b 200 567 260 676 247 635 z "},"@":{"ha":856,"x_min":0,"x_max":0,"o":"m 461 281 b 228 39 407 201 297 39 b 197 83 208 39 197 51 b 428 396 197 190 322 396 b 481 333 467 396 481 368 b 475 296 481 322 479 307 b 531 343 508 296 531 307 b 429 426 531 393 486 426 b 121 85 285 426 121 218 b 203 -7 121 24 157 -7 b 385 122 258 -7 321 36 b 382 94 383 113 382 106 b 471 13 382 44 410 13 b 713 297 603 13 713 161 b 419 549 713 422 622 549 b -24 122 156 549 -24 335 b 272 -168 -24 -26 64 -168 b 586 -26 408 -168 515 -107 l 578 -15 b 281 -133 485 -97 379 -133 b 26 117 96 -133 26 -8 b 419 507 26 304 182 507 b 668 289 596 507 668 394 b 489 50 668 171 576 50 b 442 96 449 50 442 76 b 506 253 442 154 506 226 b 461 281 506 269 475 279 z "},"ã":{"ha":607,"x_min":0,"x_max":0,"o":"m 364 294 b 72 -8 296 194 158 -8 b 35 46 47 -8 35 8 b 321 439 35 181 190 439 b 389 361 371 439 389 403 b 382 313 389 346 386 328 b 450 372 422 313 450 326 b 324 476 450 435 396 476 b -61 50 143 476 -61 215 b 42 -65 -61 -28 -17 -65 b 251 96 110 -65 171 -11 b 247 56 249 81 247 67 b 347 -42 247 7 279 -42 b 622 211 446 -42 564 61 l 608 225 b 386 6 525 78 436 6 b 339 67 353 6 339 39 b 419 260 339 133 419 228 b 364 294 419 281 381 292 z m 169 594 b 233 606 190 603 211 606 b 488 551 321 606 408 551 b 596 601 526 551 563 564 b 554 597 582 599 568 597 b 285 658 451 597 363 658 b 169 594 243 658 206 642 z "},"b":{"ha":549,"x_min":0,"x_max":0,"o":"m 121 375 b 438 904 285 474 438 775 b 393 992 438 943 424 992 b -39 74 279 992 -39 353 b 104 -101 -39 -33 8 -101 b 325 53 201 -101 275 -32 b 369 49 339 50 354 49 b 568 207 440 49 515 79 l 551 225 b 374 74 519 161 472 74 b 338 78 361 74 349 75 b 386 267 368 139 386 206 b 299 394 386 350 351 394 b 182 247 236 394 182 336 b 283 68 182 178 215 103 b 131 -49 247 0 183 -49 b 54 82 75 -49 54 6 b 121 375 54 199 104 344 z m 385 879 b 390 868 389 879 390 876 b 136 429 390 797 264 532 b 385 879 200 642 354 879 z m 231 240 b 283 340 231 297 256 340 b 329 236 310 340 329 300 b 297 96 329 186 317 138 b 231 240 249 128 231 190 z "},"\\":{"ha":583,"x_min":0,"x_max":0,"o":"m 136 1000 b 336 31 167 921 283 222 b 513 -225 383 -142 433 -211 b 221 938 439 -179 319 682 b 136 1000 211 964 181 1000 z "},"|":{"ha":469,"x_min":0,"x_max":0,"o":"m 249 968 b 104 -183 210 832 183 29 b 242 72 188 -183 225 -87 b 288 889 260 242 288 728 b 249 968 288 913 281 954 z "},"{":{"ha":485,"x_min":0,"x_max":0,"o":"m 182 451 b 371 946 319 465 251 946 b 417 926 385 946 401 935 b 340 1000 411 983 375 1000 b 90 460 126 1000 294 481 b 140 324 132 426 140 379 b 38 -29 140 214 38 65 b 128 -121 38 -76 58 -121 b 193 -75 158 -121 190 -110 b 158 -86 185 -82 169 -86 b 113 -42 124 -86 113 -67 b 218 356 113 69 218 183 b 182 451 218 399 207 425 z "},"}":{"ha":511,"x_min":0,"x_max":0,"o":"m 176 179 b 86 -64 161 60 143 -64 b 39 -47 72 -64 56 -58 b 118 -121 44 -104 82 -121 b 378 471 331 -121 165 418 b 329 603 335 500 329 554 b 432 953 329 728 432 890 b 376 1000 432 976 413 1000 b 282 931 342 1000 290 971 b 339 954 306 949 332 954 b 349 933 347 954 349 944 b 250 582 349 857 250 701 b 285 482 250 546 258 511 b 176 179 210 443 190 300 z "},"[":{"ha":592,"x_min":0,"x_max":0,"o":"m 456 -15 b 122 -44 367 -42 322 -43 b 324 913 167 114 243 679 b 472 889 374 904 424 889 b 618 1000 547 889 613 899 b 479 972 579 978 528 972 b 379 976 440 972 403 976 b 199 692 322 976 242 926 b 43 -93 61 -58 56 -72 b 275 -121 83 -103 188 -121 b 456 -15 394 -121 449 -86 z "},"]":{"ha":638,"x_min":0,"x_max":0,"o":"m 592 971 b 360 1000 510 989 428 1000 b 181 907 249 1000 181 986 b 457 936 274 933 365 936 l 544 936 b 333 -36 497 743 411 188 b 161 -25 275 -32 208 -25 b 15 -122 86 -25 21 -49 b 282 -99 83 -100 186 -99 b 460 183 407 -99 443 99 b 592 971 499 375 578 892 z "},"¦":{"ha":469,"x_min":0,"x_max":0,"o":"m 178 274 b 104 -183 158 81 136 -99 b 258 269 219 -183 239 -14 b 242 301 258 282 256 301 b 178 274 215 301 190 286 z m 229 439 b 274 531 265 465 274 514 b 288 889 274 676 288 817 b 249 968 288 913 281 954 b 190 411 229 899 213 660 z "},"•":{"ha":304,"x_min":0,"x_max":0,"o":"m 139 164 b 240 250 189 164 240 211 b 174 311 240 285 206 311 b 76 217 124 311 76 260 b 139 164 76 181 106 164 z "},"c":{"ha":450,"x_min":0,"x_max":0,"o":"m 272 469 b -32 100 131 469 -32 286 b 124 -78 -32 -19 35 -78 b 468 213 258 -78 404 44 l 450 226 b 156 -25 390 72 265 -25 b 54 90 76 -25 54 33 b 282 431 54 226 183 431 b 313 396 306 431 313 418 b 261 286 313 354 289 300 b 301 265 274 271 288 265 b 371 367 344 265 371 313 b 272 469 371 415 349 469 z "},"ˇ":{"ha":283,"x_min":0,"x_max":0,"o":"m 269 713 b 126 633 228 675 183 654 b 24 761 82 675 50 708 b 0 718 7 753 0 736 b 125 564 0 658 81 564 b 283 686 163 564 283 632 b 269 713 283 694 281 706 z "},"ç":{"ha":450,"x_min":0,"x_max":0,"o":"m 272 469 b -32 100 131 469 -32 286 b 124 -78 -32 -19 35 -78 b 268 -33 172 -78 221 -61 b 236 -83 251 -57 236 -81 b 256 -108 236 -93 243 -108 b 374 -51 272 -108 336 -51 b 397 -86 392 -51 397 -72 b 282 -207 397 -135 335 -207 b 224 -144 258 -207 233 -189 b 193 -190 203 -160 193 -176 b 278 -240 193 -217 224 -240 b 440 -85 364 -240 440 -164 b 378 -26 440 -46 419 -26 b 285 -60 333 -26 304 -46 l 332 13 b 468 213 389 64 438 133 l 450 226 b 156 -25 390 72 265 -25 b 54 90 76 -25 54 33 b 282 431 54 226 183 431 b 313 396 306 431 313 418 b 261 286 313 354 289 300 b 301 265 274 271 288 265 b 371 367 344 265 371 313 b 272 469 371 415 349 469 z "},"¸":{"ha":303,"x_min":0,"x_max":0,"o":"m 144 15 b 71 -83 122 -6 71 -79 b 90 -108 71 -93 78 -108 b 208 -51 107 -108 171 -51 b 232 -86 226 -51 232 -72 b 117 -207 232 -135 169 -207 b 58 -144 93 -207 68 -189 b 28 -190 38 -160 28 -176 b 113 -240 28 -217 58 -240 b 275 -85 199 -240 275 -164 b 213 -26 275 -46 254 -26 b 119 -60 168 -26 139 -46 l 193 53 z "},"¢":{"ha":468,"x_min":0,"x_max":0,"o":"m 406 1000 b 343 938 358 989 347 965 b 299 697 335 881 319 796 b 21 336 167 661 21 499 b 175 158 21 217 86 158 b 43 -225 126 -31 76 -187 b 244 167 150 -225 190 -76 b 446 275 314 183 390 222 l 422 297 b 254 215 371 251 311 225 b 342 665 282 349 314 517 b 363 667 349 667 356 667 b 393 632 386 667 393 654 b 342 522 393 590 369 536 b 382 501 354 507 368 501 b 451 603 425 501 451 549 b 350 706 451 651 429 706 z m 107 326 b 289 646 107 436 189 590 b 189 211 260 510 225 354 b 107 326 125 219 107 274 z "},"ˆ":{"ha":283,"x_min":0,"x_max":0,"o":"m 14 613 b 157 692 56 650 100 671 b 260 564 201 650 233 617 b 283 607 276 572 283 589 b 158 761 283 667 203 761 b 0 639 121 761 0 693 b 14 613 0 631 3 619 z "},":":{"ha":271,"x_min":0,"x_max":0,"o":"m 47 -14 b 119 47 83 -14 119 19 b 83 81 119 72 106 81 b 3 24 47 81 3 54 b 47 -14 3 -3 24 -14 z m 131 333 b 203 394 167 333 203 367 b 167 428 203 419 189 428 b 86 371 131 428 86 401 b 131 333 86 344 107 333 z "},",":{"ha":218,"x_min":0,"x_max":0,"o":"m 110 39 b 75 78 110 60 93 78 b -10 -71 33 78 -10 -14 b 14 -122 -10 -93 -3 -112 b 110 39 39 -68 58 -15 z "},"©":{"ha":961,"x_min":0,"x_max":0,"o":"m 139 497 b 478 139 139 257 321 139 b 822 503 632 139 822 254 b 483 861 822 743 640 861 b 139 497 329 861 139 746 z m 783 503 b 478 178 783 310 654 178 b 178 497 299 178 178 313 b 483 822 178 690 307 822 b 783 503 663 822 783 688 z m 411 599 b 483 688 411 660 439 688 b 554 619 539 688 550 646 b 575 603 556 611 557 603 b 596 626 583 603 596 606 b 482 725 596 658 568 725 b 369 599 419 725 369 690 l 369 415 b 482 290 369 325 418 290 b 596 392 554 290 593 336 b 572 411 596 406 586 411 b 554 394 567 411 554 407 b 486 326 554 378 539 326 b 411 415 438 326 411 354 z "},"¤":{"ha":1000,"x_min":0,"x_max":0,"o":"m 719 557 b 718 579 719 564 718 572 b 932 832 824 701 911 801 b 907 835 924 833 915 835 b 699 664 792 835 774 753 b 556 758 672 722 622 758 b 375 651 485 758 422 714 b 157 886 269 768 182 863 b 149 839 151 872 149 856 b 174 756 149 804 160 768 b 338 589 217 717 274 658 b 274 343 296 511 274 419 b 286 250 274 310 276 279 b 83 60 207 136 126 103 b 318 189 151 60 233 94 b 433 133 343 154 382 133 b 606 235 500 133 558 175 b 800 33 694 142 774 81 b 803 58 803 42 803 50 b 644 294 803 125 735 210 b 719 557 692 378 719 478 z m 556 689 b 646 572 600 689 646 640 b 444 207 646 425 539 207 b 353 329 404 207 353 256 b 556 689 353 450 442 689 z "},"d":{"ha":658,"x_min":0,"x_max":0,"o":"m 385 438 b 388 457 386 444 388 450 b 326 500 388 486 365 500 b -47 75 154 500 -47 229 b 57 -42 -47 -7 10 -42 b 340 217 142 -42 250 68 b 314 68 324 153 314 100 b 406 -36 314 19 336 -36 b 675 213 500 -36 621 69 l 658 225 b 444 19 600 99 501 19 b 413 97 413 19 413 44 b 732 968 413 372 732 881 b 704 1000 732 986 719 1000 b 400 407 628 1000 503 675 b 100 25 311 175 175 25 b 50 92 69 25 50 50 b 332 458 50 199 182 458 b 385 438 357 458 375 451 z "},"†":{"ha":593,"x_min":0,"x_max":0,"o":"m 106 -37 b 346 451 156 44 261 260 b 444 453 378 453 410 453 b 528 497 469 453 497 454 b 372 511 483 497 431 506 b 474 788 431 644 474 757 b 449 819 474 806 461 819 b 278 519 404 819 340 686 b 225 521 260 519 243 521 b 107 428 197 521 111 506 b 250 447 160 438 206 443 b 174 226 224 374 197 299 b 106 -37 146 147 106 29 z "},"‡":{"ha":621,"x_min":0,"x_max":0,"o":"m 121 465 b 264 478 182 474 218 476 l 236 404 b 40 307 131 403 44 382 l 88 314 b 208 325 139 321 172 324 l 175 226 b 107 -37 147 147 107 29 b 292 326 147 26 221 174 b 446 328 331 326 372 326 b 529 372 471 328 499 329 b 324 400 467 374 403 392 l 360 478 b 479 479 394 478 424 478 b 563 524 504 479 532 481 b 390 547 510 524 454 538 b 475 788 440 664 475 760 b 450 819 475 806 463 819 b 293 556 408 819 351 704 l 281 556 b 74 458 169 556 78 536 z "},"°":{"ha":592,"x_min":0,"x_max":0,"o":"m 338 781 b 168 625 243 781 168 692 b 268 550 168 583 196 550 b 443 706 363 550 443 639 b 338 781 443 747 414 781 z m 338 757 b 401 707 383 757 401 736 b 275 574 401 653 335 574 b 213 625 231 574 213 596 b 338 757 213 679 275 757 z "},"¨":{"ha":333,"x_min":0,"x_max":0,"o":"m 51 606 b 133 674 92 606 133 642 b 92 713 133 703 117 713 b 0 647 51 713 0 682 b 51 606 0 618 24 606 z m 251 576 b 333 644 292 576 333 613 b 292 683 333 674 317 683 b 200 618 251 683 200 653 b 251 576 200 589 224 576 z "},"÷":{"ha":726,"x_min":0,"x_max":0,"o":"m 81 172 b 332 188 171 186 253 188 b 576 228 483 188 535 199 b 343 240 536 232 442 240 b 81 172 210 240 101 228 z m 283 -14 b 356 47 319 -14 356 19 b 319 81 356 72 342 81 b 239 24 283 81 239 54 b 283 -14 239 -3 260 -14 z m 367 333 b 439 394 403 333 439 367 b 403 428 439 419 425 428 b 322 371 367 428 322 401 b 367 333 322 344 343 333 z "},"$":{"ha":739,"x_min":0,"x_max":0,"o":"m 546 1000 b 476 906 485 983 485 938 b 175 601 315 881 175 754 b 365 365 175 475 272 419 b 265 -33 333 221 299 78 b 99 129 158 -22 99 35 b 175 314 99 192 125 260 b -3 132 99 314 -3 256 b 251 -78 -3 -3 115 -69 b 183 -225 228 -146 204 -199 b 322 -78 243 -225 286 -174 b 636 199 485 -64 636 32 b 440 443 636 335 536 392 l 522 876 b 622 808 596 876 622 851 b 571 600 622 749 571 646 b 619 542 571 575 586 549 b 686 765 661 613 686 693 b 529 910 686 850 653 910 b 546 1000 536 951 543 986 z m 263 636 b 469 871 263 733 344 844 b 389 471 449 768 421 622 b 263 636 319 510 263 554 z m 540 157 b 336 -33 540 54 463 -21 b 418 335 354 19 381 146 b 540 157 486 293 540 243 z "},"ı":{"ha":336,"x_min":0,"x_max":0,"o":"m 168 471 b -32 81 74 471 -32 186 b 75 -36 -32 15 3 -36 b 349 211 183 -36 294 51 l 336 225 b 122 13 257 67 185 13 b 54 96 76 13 54 29 b 199 440 54 226 199 394 b 168 471 199 460 185 471 z "},"e":{"ha":464,"x_min":0,"x_max":0,"o":"m 394 415 b 308 500 394 483 351 500 b -44 100 144 500 -44 265 b 125 -61 -44 10 13 -61 b 482 213 263 -61 407 46 l 465 225 b 154 -21 396 92 272 -21 b 44 96 68 -21 44 39 b 50 146 44 110 46 128 b 394 415 208 161 394 274 z m 304 457 b 333 425 328 457 333 446 b 57 172 333 306 156 207 b 304 457 94 304 215 457 z "},"é":{"ha":464,"x_min":0,"x_max":0,"o":"m 394 415 b 308 500 394 483 351 500 b -44 100 144 500 -44 265 b 125 -61 -44 10 13 -61 b 482 213 263 -61 407 46 l 465 225 b 154 -21 396 92 272 -21 b 44 96 68 -21 44 39 b 50 146 44 110 46 128 b 394 415 208 161 394 274 z m 304 457 b 333 425 328 457 333 446 b 57 172 333 306 156 207 b 304 457 94 304 215 457 z m 556 757 b 525 800 553 790 540 800 b 381 632 469 800 381 664 b 400 596 381 624 386 603 b 556 757 440 650 489 699 z "},"ê":{"ha":464,"x_min":0,"x_max":0,"o":"m 394 415 b 308 500 394 483 351 500 b -44 100 144 500 -44 265 b 125 -61 -44 10 13 -61 b 482 213 263 -61 407 46 l 465 225 b 154 -21 396 92 272 -21 b 44 96 68 -21 44 39 b 50 146 44 110 46 128 b 394 415 208 161 394 274 z m 304 457 b 333 425 328 457 333 446 b 57 172 333 306 156 207 b 304 457 94 304 215 457 z m 242 613 b 385 692 283 650 328 671 b 488 564 429 650 461 617 b 511 607 504 572 511 589 b 386 761 511 667 431 761 b 228 639 349 761 228 693 b 242 613 228 631 231 619 z "},"ë":{"ha":464,"x_min":0,"x_max":0,"o":"m 394 415 b 308 500 394 483 351 500 b -44 100 144 500 -44 265 b 125 -61 -44 10 13 -61 b 482 213 263 -61 407 46 l 465 225 b 154 -21 396 92 272 -21 b 44 96 68 -21 44 39 b 50 146 44 110 46 128 b 394 415 208 161 394 274 z m 304 457 b 333 425 328 457 333 446 b 57 172 333 306 156 207 b 304 457 94 304 215 457 z m 217 606 b 299 674 257 606 299 642 b 257 713 299 703 282 713 b 165 647 217 713 165 682 b 217 606 165 618 189 606 z m 417 576 b 499 644 457 576 499 613 b 457 683 499 674 482 683 b 365 618 417 683 365 653 b 417 576 365 589 389 576 z "},"è":{"ha":464,"x_min":0,"x_max":0,"o":"m 394 415 b 308 500 394 483 351 500 b -44 100 144 500 -44 265 b 125 -61 -44 10 13 -61 b 482 213 263 -61 407 46 l 465 225 b 154 -21 396 92 272 -21 b 44 96 68 -21 44 39 b 50 146 44 110 46 128 b 394 415 208 161 394 274 z m 304 457 b 333 425 328 457 333 446 b 57 172 333 306 156 207 b 304 457 94 304 215 457 z m 214 742 b 369 581 281 683 329 635 b 389 617 383 588 389 608 b 244 785 389 649 300 785 b 214 742 229 785 217 775 z "},"…":{"ha":650,"x_min":0,"x_max":0,"o":"m 47 -14 b 119 47 83 -14 119 19 b 83 81 119 72 106 81 b 3 24 47 81 3 54 b 47 -14 3 -3 24 -14 z m 264 -14 b 336 47 300 -14 336 19 b 300 81 336 72 322 81 b 219 24 264 81 219 54 b 264 -14 219 -3 240 -14 z m 481 -14 b 553 47 517 -14 553 19 b 517 81 553 72 539 81 b 436 24 481 81 436 54 b 481 -14 436 -3 457 -14 z "},"—":{"ha":1157,"x_min":0,"x_max":0,"o":"m 1 158 b 797 185 235 188 238 182 b 1024 247 857 185 947 194 b 490 272 829 249 765 272 b 1 158 215 272 11 251 z "},"–":{"ha":978,"x_min":0,"x_max":0,"o":"m 1 158 b 638 185 188 188 190 182 b 819 247 686 185 758 194 b 393 272 664 249 613 272 b 1 158 172 272 10 251 z "},"=":{"ha":726,"x_min":0,"x_max":0,"o":"m 79 147 b 292 163 164 161 207 163 l 432 163 b 575 203 471 163 529 169 b 342 215 535 207 440 215 b 79 147 208 215 100 203 z m 79 286 b 292 301 164 300 207 301 l 432 301 b 575 342 471 301 529 308 b 342 354 535 346 440 354 b 79 286 208 354 100 342 z "},"ð":{"ha":658,"x_min":0,"x_max":0,"o":"m 299 707 b 458 739 338 718 419 733 b 464 679 463 718 464 699 b 401 407 464 583 429 479 b 100 25 322 200 181 25 b 50 92 69 25 50 50 b 332 458 50 199 182 458 b 385 438 357 458 375 451 b 388 457 386 444 388 450 b 326 500 388 486 365 500 b -47 75 154 500 -47 229 b 57 -42 -47 -7 10 -42 b 340 217 142 -42 250 68 b 314 68 324 153 314 100 b 406 -36 314 19 336 -36 b 675 213 500 -36 621 69 l 658 225 b 444 19 600 99 501 19 b 406 79 415 19 406 42 b 561 688 406 231 561 500 b 556 753 561 707 560 729 b 674 814 619 761 644 765 b 547 797 651 807 590 800 b 382 999 522 897 467 999 b 328 972 357 999 342 990 b 449 786 392 917 431 853 b 299 707 371 775 299 763 z "},"!":{"ha":496,"x_min":0,"x_max":0,"o":"m 88 143 b 496 968 190 293 496 890 b 468 1000 496 986 483 1000 b 164 407 392 1000 267 675 b 88 143 133 328 88 210 z m 47 -14 b 119 47 83 -14 119 19 b 83 81 119 72 106 81 b 3 24 47 81 3 54 b 47 -14 3 -3 24 -14 z "},"¡":{"ha":496,"x_min":0,"x_max":0,"o":"m 411 510 b 3 -315 308 360 3 -237 b 31 -347 3 -333 15 -347 b 335 246 107 -347 232 -22 b 411 510 365 325 411 443 z m 451 667 b 379 606 415 667 379 633 b 415 572 379 581 393 572 b 496 629 451 572 496 599 b 451 667 496 656 475 667 z "},"f":{"ha":435,"x_min":0,"x_max":0,"o":"m 435 225 b 281 89 383 138 346 89 b 160 306 193 89 178 179 b 125 350 157 325 144 346 b 151 419 133 374 142 397 b 522 939 328 543 522 781 b 475 1000 522 972 514 1000 b -119 -267 244 1000 -119 18 b -43 -389 -119 -369 -72 -389 b 171 99 63 -389 169 -133 b 274 53 201 71 240 53 b 456 211 328 53 408 100 z m 135 83 b -7 -322 135 -62 46 -322 b -33 -256 -24 -322 -33 -297 b 88 246 -33 -161 17 38 b 135 83 121 181 135 140 z m 449 907 b 468 888 461 907 468 901 b 174 476 468 831 353 642 b 449 907 268 711 376 907 z "},"ﬁ":{"ha":771,"x_min":0,"x_max":0,"o":"m 603 471 b 458 296 551 471 497 388 b 285 206 410 247 344 206 b 160 324 233 206 186 238 b 128 358 154 339 143 353 b 151 419 135 379 143 400 b 522 940 329 544 522 781 b 475 1000 522 972 514 1000 b -119 -267 244 1000 -119 18 b -43 -389 -119 -369 -72 -389 b 171 103 64 -389 171 -131 b 165 192 171 131 169 163 b 261 169 199 176 233 169 b 436 239 321 169 383 196 b 403 81 415 178 403 118 b 510 -36 403 15 438 -36 b 783 211 618 -36 729 51 l 771 225 b 557 13 692 67 619 13 b 489 96 511 13 489 29 b 633 440 489 226 633 394 b 603 471 633 460 619 471 z m 135 107 b -7 -322 135 -72 46 -322 b -33 -256 -24 -322 -33 -297 b 93 261 -33 -158 19 49 b 135 107 135 226 135 151 z m 449 907 b 468 888 461 907 468 901 b 174 476 468 831 353 642 b 449 907 268 711 376 907 z m 676 600 b 767 675 721 600 767 640 b 721 718 767 707 749 718 b 619 646 676 718 619 685 b 676 600 619 614 646 600 z "},"ﬂ":{"ha":764,"x_min":0,"x_max":0,"o":"m 522 940 b 475 1000 522 972 514 1000 b -119 -267 244 1000 -119 18 b -43 -389 -119 -369 -72 -389 b 171 103 64 -389 171 -131 b 168 168 171 124 169 146 b 268 142 200 150 236 142 b 422 185 318 142 372 157 b 414 101 417 154 414 126 b 525 -42 414 19 446 -42 b 786 214 625 -42 713 56 l 764 225 b 565 3 715 117 639 3 b 504 110 525 3 504 38 b 522 250 504 151 511 200 b 892 897 725 418 892 774 b 846 1000 892 936 875 1000 b 429 221 764 1000 496 521 b 288 175 385 194 333 175 b 160 315 226 175 172 211 b 128 358 157 335 146 353 b 151 419 135 379 143 400 b 522 940 329 544 522 781 z m 135 100 b -7 -322 135 -72 46 -322 b -33 -256 -24 -322 -33 -297 b 92 256 -33 -160 19 44 b 135 100 131 214 135 147 z m 839 888 b 849 865 843 888 849 883 b 535 297 849 772 696 460 b 839 888 611 565 801 888 z m 449 907 b 468 888 461 907 468 901 b 174 476 468 831 353 642 b 449 907 268 711 376 907 z "},"ƒ":{"ha":547,"x_min":0,"x_max":0,"o":"m 19 375 b 106 385 40 379 72 382 b -185 -274 25 58 -36 -274 b -285 -143 -232 -274 -285 -221 b -274 -69 -285 -124 -282 -97 b -357 -175 -331 -89 -357 -126 b -183 -312 -357 -258 -282 -312 b 172 389 -7 -312 47 -142 l 197 389 b 350 388 274 389 317 388 b 447 450 389 388 419 410 b 408 446 438 447 431 446 b 229 457 353 446 307 454 b 522 938 386 583 522 794 b 469 1000 522 992 501 1000 b 122 453 288 1000 194 739 b 19 375 68 447 21 428 z m 429 907 b 458 871 450 907 458 893 b 201 482 458 792 340 599 b 429 907 271 743 357 907 z "},"⁴":{"ha":443,"x_min":0,"x_max":0,"o":"m 360 996 b 69 682 299 885 154 757 b 56 647 63 675 56 664 b 196 660 93 656 136 660 l 219 660 b 246 658 228 660 236 658 b 211 472 215 518 211 478 b 278 436 211 450 238 439 b 307 658 278 493 301 631 l 317 658 b 388 707 336 658 367 678 b 338 700 367 703 353 700 l 314 700 b 378 976 351 893 378 964 b 360 996 378 989 371 994 z m 257 703 l 231 703 b 192 704 218 703 206 704 b 132 701 168 704 149 703 b 233 800 163 735 201 769 l 294 860 b 264 735 282 821 274 782 z "},"g":{"ha":542,"x_min":0,"x_max":0,"o":"m 385 410 b 401 438 389 411 401 421 b 326 482 401 461 379 482 b -42 122 176 482 -42 315 b 63 -12 -42 42 -4 -12 b 289 165 140 -12 218 64 b 218 -64 267 75 243 0 b -53 -308 101 -122 -53 -196 b 28 -389 -53 -365 -12 -389 b 299 -50 132 -389 221 -237 b 558 211 385 -8 515 86 l 540 225 b 314 -10 499 119 404 33 b 421 371 378 156 421 325 b 392 375 410 374 400 375 b 321 304 346 375 326 331 l 304 231 b 99 47 233 129 151 47 b 50 115 69 47 50 71 b 329 431 50 232 183 431 b 385 410 357 431 375 424 z m 24 -344 b -10 -296 4 -344 -10 -325 b 203 -101 -10 -217 93 -157 b 24 -344 129 -279 60 -344 z "},"ß":{"ha":739,"x_min":0,"x_max":0,"o":"m 393 564 b 360 517 372 546 360 531 b 388 481 360 504 371 493 b 496 224 453 431 496 325 b 335 -93 496 76 407 -93 b 293 26 306 -93 293 -39 b 343 225 293 110 314 210 b 321 226 336 226 328 226 b 236 61 265 226 236 144 b 333 -121 236 -29 268 -121 b 594 204 461 -121 594 57 b 414 500 594 307 519 454 b 396 515 404 504 396 510 b 413 533 396 521 401 526 b 628 847 507 594 628 708 b 482 1000 628 943 565 1000 b 33 -160 121 1000 113 -54 b 471 963 240 -94 194 963 b 553 849 536 963 553 904 b 393 564 553 721 469 636 z "},"`":{"ha":175,"x_min":0,"x_max":0,"o":"m 0 731 b 156 569 67 672 115 624 b 175 606 169 576 175 597 b 31 774 175 638 86 774 b 0 731 15 774 3 764 z "},">":{"ha":403,"x_min":0,"x_max":0,"o":"m 61 439 b 54 408 58 435 54 417 b 289 204 54 333 196 253 b 64 83 226 158 190 132 b 104 61 72 74 86 61 b 325 219 171 61 311 164 l 307 222 b 61 439 233 260 119 357 z "},"«":{"ha":563,"x_min":0,"x_max":0,"o":"m 318 439 b 72 222 260 357 146 260 l 54 219 b 275 61 68 164 208 61 b 315 83 293 61 307 74 b 90 204 189 132 153 158 b 325 408 183 253 325 333 b 318 439 325 417 321 435 z m 526 439 b 281 222 468 357 354 260 l 263 219 b 483 61 276 164 417 61 b 524 83 501 61 515 74 b 299 204 397 132 361 158 b 533 408 392 253 533 333 b 526 439 533 417 529 435 z "},"»":{"ha":563,"x_min":0,"x_max":0,"o":"m 61 439 b 54 408 58 435 54 417 b 289 204 54 333 196 253 b 64 83 226 158 190 132 b 104 61 72 74 86 61 b 325 219 171 61 311 164 l 307 222 b 61 439 233 260 119 357 z m 269 439 b 263 408 267 435 263 417 b 497 204 263 333 404 253 b 272 83 435 158 399 132 b 313 61 281 74 294 61 b 533 219 379 61 519 164 l 515 222 b 269 439 442 260 328 357 z "},"‹":{"ha":403,"x_min":0,"x_max":0,"o":"m 318 439 b 72 222 260 357 146 260 l 54 219 b 275 61 68 164 208 61 b 315 83 293 61 307 74 b 90 204 189 132 151 160 b 325 408 183 253 325 333 b 318 439 325 417 321 435 z "},"›":{"ha":403,"x_min":0,"x_max":0,"o":"m 61 439 b 54 408 58 435 54 417 b 289 204 54 333 196 253 b 64 83 226 158 190 132 b 104 61 72 74 86 61 b 325 219 171 61 311 164 l 307 222 b 61 439 233 260 119 357 z "},"h":{"ha":663,"x_min":0,"x_max":0,"o":"m 318 54 b 414 -33 318 4 350 -33 b 681 208 521 -33 622 72 l 663 225 b 446 3 607 104 508 3 b 404 56 422 3 404 18 b 464 289 404 124 464 203 b 358 414 464 350 435 414 b 76 54 235 414 142 244 b 74 101 75 67 74 81 b 125 375 74 176 90 293 b 444 904 289 474 444 775 b 399 992 444 942 432 992 b -17 92 278 992 -17 357 b 40 -53 -17 18 6 -53 b 308 331 119 -53 171 331 b 361 264 338 331 361 313 b 318 54 361 197 318 113 z m 392 879 b 397 868 396 879 397 876 b 143 429 397 797 271 532 b 392 879 213 656 364 879 z "},"-":{"ha":726,"x_min":0,"x_max":0,"o":"m 79 200 b 300 215 167 214 210 215 l 432 215 b 575 256 471 215 529 222 b 342 268 535 260 440 268 b 79 200 208 268 100 256 z "},"i":{"ha":336,"x_min":0,"x_max":0,"o":"m 168 471 b -32 81 74 471 -32 186 b 75 -36 -32 15 3 -36 b 349 211 183 -36 294 51 l 336 225 b 122 13 257 67 185 13 b 54 96 76 13 54 29 b 199 440 54 226 199 394 b 168 471 199 460 185 471 z m 242 600 b 332 675 286 600 332 640 b 286 718 332 707 314 718 b 185 646 242 718 185 685 b 242 600 185 614 211 600 z "},"í":{"ha":336,"x_min":0,"x_max":0,"o":"m 168 471 b -32 81 74 471 -32 186 b 75 -36 -32 15 3 -36 b 349 211 183 -36 294 51 l 336 225 b 122 13 257 67 185 13 b 54 96 76 13 54 29 b 199 440 54 226 199 394 b 168 471 199 460 185 471 z m 378 731 b 347 774 375 764 363 774 b 203 606 292 774 203 638 b 222 569 203 597 208 576 b 378 731 263 624 311 672 z "},"î":{"ha":336,"x_min":0,"x_max":0,"o":"m 168 471 b -32 81 74 471 -32 186 b 75 -36 -32 15 3 -36 b 349 211 183 -36 294 51 l 336 225 b 122 13 257 67 185 13 b 54 96 76 13 54 29 b 199 440 54 226 199 394 b 168 471 199 460 185 471 z m 128 613 b 271 692 169 650 214 671 b 374 564 315 650 347 617 b 397 607 390 572 397 589 b 272 761 397 667 317 761 b 114 639 235 761 114 693 b 128 613 114 631 117 619 z "},"ï":{"ha":336,"x_min":0,"x_max":0,"o":"m 168 471 b -32 81 74 471 -32 186 b 75 -36 -32 15 3 -36 b 349 211 183 -36 294 51 l 336 225 b 122 13 257 67 185 13 b 54 96 76 13 54 29 b 199 440 54 226 199 394 b 168 471 199 460 185 471 z m 108 606 b 190 674 149 606 190 642 b 149 713 190 703 174 713 b 57 647 108 713 57 682 b 108 606 57 618 81 606 z m 308 576 b 390 644 349 576 390 613 b 349 683 390 674 374 683 b 257 618 308 683 257 653 b 308 576 257 589 281 576 z "},"ì":{"ha":336,"x_min":0,"x_max":0,"o":"m 168 471 b -32 81 74 471 -32 186 b 75 -36 -32 15 3 -36 b 349 211 183 -36 294 51 l 336 225 b 122 13 257 67 185 13 b 54 96 76 13 54 29 b 199 440 54 226 199 394 b 168 471 199 460 185 471 z m 100 738 b 256 576 167 679 215 631 b 275 613 269 583 275 604 b 131 781 275 644 186 781 b 100 738 115 781 103 771 z "},"j":{"ha":304,"x_min":0,"x_max":0,"o":"m 174 440 b 140 482 174 464 161 482 b -12 196 83 482 50 310 l 0 175 b 65 285 13 197 38 235 b -28 -57 42 146 8 32 b -117 -101 -64 -75 -90 -86 b -292 -318 -219 -158 -292 -250 b -219 -389 -292 -358 -267 -389 b 49 -50 -107 -389 -14 -222 b 322 208 133 0 253 43 l 304 218 b 63 -11 225 72 142 36 b 174 440 131 189 174 399 z m -232 -342 b -256 -308 -244 -342 -256 -333 b -46 -101 -256 -250 -186 -171 b -232 -342 -118 -261 -196 -342 z m 163 607 b 254 686 208 607 254 644 b 208 725 254 713 235 725 b 107 651 164 725 107 693 b 163 607 107 622 133 607 z "},"k":{"ha":621,"x_min":0,"x_max":0,"o":"m 246 197 b 388 -53 246 113 282 -53 b 635 213 485 -53 594 76 l 621 226 b 415 0 564 100 494 0 b 307 179 342 0 311 149 b 504 342 361 179 504 222 b 381 465 504 410 449 465 b 69 76 242 465 128 224 b 161 474 69 172 100 324 b 444 901 325 572 444 774 b 401 992 444 951 426 992 b -19 88 303 992 -19 378 b 29 -43 -19 24 -18 -43 b 76 -18 46 -43 67 -35 b 354 393 93 13 190 393 b 424 331 390 393 424 369 b 246 197 424 236 288 197 z m 393 879 b 397 867 396 879 397 876 b 185 529 397 796 313 632 b 393 879 265 715 365 879 z "},"l":{"ha":329,"x_min":0,"x_max":0,"o":"m 457 897 b 411 1000 457 936 440 1000 b -21 101 317 1000 -21 368 b 90 -42 -21 19 11 -42 b 351 214 190 -42 278 56 l 331 225 b 131 3 282 117 204 3 b 69 110 90 3 69 38 b 88 250 69 151 76 200 b 457 897 290 418 457 774 z m 404 888 b 414 865 408 888 414 883 b 100 297 414 772 261 460 b 404 888 176 565 367 888 z "},"<":{"ha":403,"x_min":0,"x_max":0,"o":"m 318 439 b 72 222 260 357 146 260 l 54 219 b 275 61 68 164 208 61 b 315 83 293 61 307 74 b 90 204 189 132 153 158 b 325 408 183 253 325 333 b 318 439 325 417 321 435 z "},"¬":{"ha":936,"x_min":0,"x_max":0,"o":"m 660 46 b 728 229 715 60 728 136 b 726 279 728 246 726 263 b 835 311 763 286 801 296 b 724 317 810 313 771 315 b 715 392 721 350 717 376 b 676 319 692 369 681 343 b 461 324 613 322 538 324 b 42 256 249 324 75 311 b 606 271 235 275 293 268 b 675 274 625 271 650 271 b 660 46 674 157 678 124 z "},"m":{"ha":899,"x_min":0,"x_max":0,"o":"m 335 -31 b 401 99 353 7 372 54 b 583 306 488 231 538 306 b 624 256 604 306 624 292 b 582 58 624 201 582 126 b 675 -43 582 3 610 -43 b 915 206 786 -43 871 89 l 899 225 b 713 6 856 131 789 6 b 671 53 681 6 671 28 b 722 285 671 111 722 211 b 643 374 722 332 701 374 b 413 160 549 374 471 265 b 456 356 428 197 456 285 b 381 461 456 413 438 461 b 88 197 281 461 163 315 b 124 356 108 267 124 331 b 86 392 124 378 111 392 b 22 363 60 392 33 375 b -74 -8 21 240 -74 13 b 1 -37 -74 -22 -25 -37 b 317 369 69 150 236 369 b 351 317 342 369 351 349 b 264 -3 351 219 264 22 b 335 -31 264 -22 313 -31 z "},"µ":{"ha":608,"x_min":0,"x_max":0,"o":"m 131 454 b 64 518 131 486 111 518 b 38 494 42 518 39 511 b -164 -336 -29 -62 -99 -107 b -121 -389 -164 -342 -146 -389 b 19 -18 -96 -389 -49 -260 b 78 -42 35 -33 56 -42 b 260 131 147 -42 208 39 b 250 61 254 107 250 83 b 347 -42 250 4 274 -42 b 626 213 446 -42 567 63 l 608 225 b 376 0 540 82 435 0 b 331 56 343 0 331 22 b 424 340 331 149 424 325 b 357 376 424 364 372 374 b 104 14 304 272 190 14 b 64 83 76 14 64 36 b 131 454 64 151 90 274 z "},"×":{"ha":726,"x_min":0,"x_max":0,"o":"m 186 417 b 181 392 182 408 181 400 b 276 232 181 349 219 293 b 169 60 214 164 169 106 b 175 35 169 51 171 43 b 313 193 225 103 254 135 l 324 183 b 497 28 393 114 465 53 b 425 157 488 82 451 129 l 351 231 l 414 294 b 486 424 442 322 478 368 b 313 268 454 399 382 338 b 186 417 261 321 232 353 z "},"n":{"ha":649,"x_min":0,"x_max":0,"o":"m -78 10 b -4 -21 -62 -11 -33 -21 b 311 322 68 101 196 322 b 367 254 343 322 367 306 b 326 61 367 189 326 118 b 424 -28 326 10 358 -28 b 664 207 528 -28 606 71 l 649 225 b 454 8 597 122 524 8 b 413 61 431 8 413 22 b 469 281 413 129 469 194 b 367 406 469 343 439 406 b 78 161 261 406 151 274 b 122 344 103 238 122 315 b 85 381 122 367 110 381 b 21 351 58 381 32 364 b -78 10 19 231 -78 26 z "},"ñ":{"ha":649,"x_min":0,"x_max":0,"o":"m -78 10 b -4 -21 -62 -11 -33 -21 b 311 322 68 101 196 322 b 367 254 343 322 367 306 b 326 61 367 189 326 118 b 424 -28 326 10 358 -28 b 664 207 528 -28 606 71 l 649 225 b 454 8 597 122 524 8 b 413 61 431 8 413 22 b 469 281 413 129 469 194 b 367 406 469 343 439 406 b 78 161 261 406 151 274 b 122 344 103 238 122 315 b 85 381 122 367 110 381 b 21 351 58 381 32 364 b -78 10 19 231 -78 26 z m 111 585 b 175 596 132 593 153 596 b 429 542 263 596 350 542 b 538 592 468 542 504 554 b 496 588 524 589 510 588 b 226 649 393 588 304 649 b 111 585 185 649 147 632 z "},"#":{"ha":950,"x_min":0,"x_max":0,"o":"m 143 388 b 332 401 217 394 274 397 b 313 313 326 381 317 333 b 13 215 147 308 18 286 l 90 222 b 294 236 171 229 232 233 b 142 -225 244 22 189 -167 b 357 239 256 -225 293 -68 l 532 239 b 378 -225 482 26 426 -165 b 594 243 490 -225 532 -67 b 728 244 635 244 678 244 b 867 289 771 244 817 246 b 607 303 792 289 704 297 b 628 408 611 329 622 381 b 779 410 672 408 721 410 b 919 454 822 410 869 411 b 639 469 839 454 744 464 b 740 1000 688 717 731 953 b 678 938 689 988 683 964 b 583 472 656 833 625 669 b 411 478 528 475 471 478 l 406 478 b 504 1000 453 722 494 953 b 442 938 453 988 447 964 b 349 476 419 835 390 672 b 64 381 192 472 69 449 z m 390 404 b 569 407 442 406 497 407 l 547 307 b 372 313 492 310 432 313 z "},"o":{"ha":563,"x_min":0,"x_max":0,"o":"m 564 222 b 454 117 528 146 493 117 b 357 232 406 117 357 161 b 411 407 357 306 411 372 b 364 461 411 424 399 461 b 354 460 360 461 357 461 b 294 489 346 476 329 489 b -42 76 129 489 -42 224 b 69 -44 -42 6 -1 -44 b 313 186 167 -44 254 50 b 443 89 340 122 392 89 b 582 208 489 89 542 115 z m 100 15 b 47 86 67 15 47 43 b 317 435 47 192 160 435 b 290 308 301 411 290 371 b 299 229 290 276 293 251 b 100 15 249 110 163 15 z "},"ó":{"ha":563,"x_min":0,"x_max":0,"o":"m 564 222 b 454 117 528 146 493 117 b 357 232 406 117 357 161 b 411 407 357 306 411 372 b 364 461 411 424 399 461 b 354 460 360 461 357 461 b 294 489 346 476 329 489 b -42 76 129 489 -42 224 b 69 -44 -42 6 -1 -44 b 313 186 167 -44 254 50 b 443 89 340 122 392 89 b 582 208 489 89 542 115 z m 100 15 b 47 86 67 15 47 43 b 317 435 47 192 160 435 b 290 308 301 411 290 371 b 299 229 290 276 293 251 b 100 15 249 110 163 15 z m 614 736 b 583 779 611 769 599 779 b 439 611 528 779 439 643 b 458 575 439 603 444 582 b 614 736 499 629 547 678 z "},"ô":{"ha":563,"x_min":0,"x_max":0,"o":"m 564 222 b 454 117 528 146 493 117 b 357 232 406 117 357 161 b 411 407 357 306 411 372 b 364 461 411 424 399 461 b 354 460 360 461 357 461 b 294 489 346 476 329 489 b -42 76 129 489 -42 224 b 69 -44 -42 6 -1 -44 b 313 186 167 -44 254 50 b 443 89 340 122 392 89 b 582 208 489 89 542 115 z m 100 15 b 47 86 67 15 47 43 b 317 435 47 192 160 435 b 290 308 301 411 290 371 b 299 229 290 276 293 251 b 100 15 249 110 163 15 z m 235 613 b 378 692 276 650 321 671 b 481 564 422 650 454 617 b 504 607 497 572 504 589 b 379 761 504 667 424 761 b 221 639 342 761 221 693 b 235 613 221 631 224 619 z "},"ö":{"ha":563,"x_min":0,"x_max":0,"o":"m 564 222 b 454 117 528 146 493 117 b 357 232 406 117 357 161 b 411 407 357 306 411 372 b 364 461 411 424 399 461 b 354 460 360 461 357 461 b 294 489 346 476 329 489 b -42 76 129 489 -42 224 b 69 -44 -42 6 -1 -44 b 313 186 167 -44 254 50 b 443 89 340 122 392 89 b 582 208 489 89 542 115 z m 100 15 b 47 86 67 15 47 43 b 317 435 47 192 160 435 b 290 308 301 411 290 371 b 299 229 290 276 293 251 b 100 15 249 110 163 15 z m 207 606 b 289 674 247 606 289 642 b 247 713 289 703 272 713 b 156 647 207 713 156 682 b 207 606 156 618 179 606 z m 407 576 b 489 644 447 576 489 613 b 447 683 489 674 472 683 b 356 618 407 683 356 653 b 407 576 356 589 379 576 z "},"œ":{"ha":756,"x_min":0,"x_max":0,"o":"m 688 415 b 601 500 688 483 644 500 b 419 418 540 500 476 468 b 324 476 407 454 375 476 b -61 50 143 476 -61 215 b 42 -65 -61 -28 -17 -65 b 249 92 108 -65 169 -12 b 418 -61 251 6 308 -61 b 775 213 556 -61 700 46 l 758 225 b 447 -21 689 92 565 -21 b 338 96 361 -21 338 39 b 343 146 338 110 339 128 b 688 415 501 161 688 274 z m 72 -8 b 35 46 47 -8 35 8 b 167 343 35 128 92 256 b 163 304 164 331 163 317 b 256 158 163 242 194 179 l 251 138 b 72 -8 190 60 122 -8 z m 597 457 b 626 425 621 457 626 446 b 350 172 626 306 449 207 b 597 457 388 304 508 457 z m 321 439 b 386 386 360 439 379 417 b 265 194 332 331 289 263 b 217 283 238 214 217 244 b 321 439 217 365 269 439 z "},"ò":{"ha":563,"x_min":0,"x_max":0,"o":"m 564 222 b 454 117 528 146 493 117 b 357 232 406 117 357 161 b 411 407 357 306 411 372 b 364 461 411 424 399 461 b 354 460 360 461 357 461 b 294 489 346 476 329 489 b -42 76 129 489 -42 224 b 69 -44 -42 6 -1 -44 b 313 186 167 -44 254 50 b 443 89 340 122 392 89 b 582 208 489 89 542 115 z m 100 15 b 47 86 67 15 47 43 b 317 435 47 192 160 435 b 290 308 301 411 290 371 b 299 229 290 276 293 251 b 100 15 249 110 163 15 z m 235 731 b 390 569 301 672 350 624 b 410 606 404 576 410 597 b 265 774 410 638 321 774 b 235 731 250 774 238 764 z "},"½":{"ha":1000,"x_min":0,"x_max":0,"o":"m 825 1000 b 708 938 781 1000 718 964 b 111 -121 610 682 240 8 b 368 135 190 -121 272 -18 b 825 1000 488 326 794 921 z m 388 996 b 242 878 338 943 265 889 b 263 853 242 858 249 853 b 333 889 271 853 289 860 b 239 475 308 801 282 572 b 169 468 215 471 190 468 b 157 469 165 468 161 469 l 140 469 b 200 436 156 447 182 436 b 317 442 239 436 269 442 b 376 439 335 442 358 440 b 304 483 369 475 342 483 b 286 482 297 483 293 483 b 325 592 304 504 314 540 l 343 678 b 394 928 363 768 383 885 b 403 974 399 943 403 958 b 396 996 403 981 401 990 z m 681 315 b 671 365 674 335 671 347 b 760 501 671 442 704 501 b 828 407 799 501 828 474 b 647 53 828 285 731 126 b 576 63 619 58 597 63 b 519 26 536 63 519 49 b 572 -14 519 3 542 -14 b 650 15 596 -14 621 -4 l 676 4 b 811 -36 722 -15 774 -36 b 890 44 853 -36 876 -11 b 829 19 860 25 844 19 b 703 42 797 19 750 31 l 692 44 b 888 397 792 126 888 275 b 771 525 888 468 842 525 b 617 379 681 525 617 454 b 669 315 617 340 635 325 z m 571 11 b 551 25 561 11 551 17 b 571 39 551 31 556 39 b 614 29 581 39 596 36 b 571 11 596 18 583 11 z "},"¼":{"ha":1000,"x_min":0,"x_max":0,"o":"m 825 1000 b 708 938 781 1000 718 964 b 111 -121 610 682 240 8 b 368 135 190 -121 272 -18 b 825 1000 488 326 794 921 z m 388 996 b 242 878 338 943 265 889 b 263 853 242 858 249 853 b 333 889 271 853 289 860 b 239 475 308 801 282 572 b 169 468 215 471 190 468 b 157 469 165 468 161 469 l 140 469 b 200 436 156 447 182 436 b 317 442 239 436 269 442 b 376 439 335 442 358 440 b 304 483 369 475 342 483 b 286 482 297 483 293 483 b 325 592 304 504 314 540 l 343 678 b 394 928 363 768 383 885 b 403 974 399 943 403 958 b 396 996 403 981 401 990 z m 839 524 b 549 210 778 413 633 285 b 535 175 542 203 535 192 b 675 188 572 183 615 188 l 699 188 b 725 186 707 188 715 186 b 690 0 694 46 690 6 b 757 -36 690 -22 717 -33 b 786 186 757 21 781 158 l 796 186 b 867 235 815 186 846 206 b 817 228 846 231 832 228 l 793 228 b 857 504 831 421 857 492 b 839 524 857 517 850 522 z m 736 231 l 710 231 b 671 232 697 231 685 232 b 611 229 647 232 628 231 b 713 328 642 263 681 297 l 774 388 b 743 263 761 349 753 310 z "},"¹":{"ha":374,"x_min":0,"x_max":0,"o":"m 303 996 b 157 878 253 943 181 889 b 178 853 157 858 164 853 b 249 889 186 853 204 860 b 154 475 224 801 197 572 b 85 468 131 471 106 468 b 72 469 81 468 76 469 l 56 469 b 115 436 71 447 97 436 b 232 442 154 436 185 442 b 292 439 250 442 274 440 b 219 483 285 475 257 483 b 201 482 213 483 208 483 b 240 592 219 504 229 540 l 258 678 b 310 928 278 768 299 885 b 318 974 314 943 318 958 b 311 996 318 981 317 990 z "},"ª":{"ha":547,"x_min":0,"x_max":0,"o":"m 339 874 b 135 661 292 803 194 661 b 108 699 117 661 108 674 b 308 975 108 793 217 975 b 357 919 343 975 357 949 b 351 886 357 910 354 897 b 399 928 379 886 399 896 b 311 1000 399 971 361 1000 b 42 703 185 1000 42 818 b 114 621 42 647 72 621 b 260 735 161 621 204 660 b 257 706 258 724 257 714 b 328 638 257 672 279 638 b 519 815 396 638 479 710 l 510 825 b 354 671 451 722 389 671 b 321 714 331 671 321 694 b 378 849 321 761 378 826 b 339 874 378 864 350 871 z "},"º":{"ha":442,"x_min":0,"x_max":0,"o":"m 396 803 b 358 799 385 801 371 799 b 331 821 343 799 331 803 b 369 943 331 872 369 919 b 329 981 369 958 358 981 b 288 1000 324 992 311 1000 b 51 711 171 1000 51 815 b 129 628 51 663 81 628 b 303 793 197 628 261 697 b 339 775 310 781 324 775 b 396 803 363 775 388 788 z m 151 669 b 114 718 128 669 114 689 b 303 963 114 793 193 963 b 285 874 292 946 285 918 b 290 818 285 851 286 835 b 151 669 256 735 194 669 z "},"ø":{"ha":563,"x_min":0,"x_max":0,"o":"m 564 222 b 454 117 528 146 493 117 b 357 232 406 117 357 161 b 411 407 357 306 411 372 b 386 454 411 419 404 442 b 439 536 413 494 431 525 b 421 538 433 536 426 538 b 358 517 396 538 365 528 l 336 479 b 294 489 326 485 313 489 b -42 76 129 489 -42 224 b -18 -4 -42 44 -33 17 b -115 -87 -54 -43 -87 -74 b -97 -89 -110 -89 -103 -89 b 18 -33 -67 -89 -25 -68 b 69 -44 32 -40 50 -44 b 313 186 167 -44 254 50 b 443 89 340 122 392 89 b 582 208 489 89 542 115 z m 47 71 l 47 86 b 307 433 47 189 156 425 b 47 71 242 331 140 185 z m 100 15 b 78 19 92 15 85 17 l 85 26 b 290 303 138 78 218 194 b 299 229 290 274 293 250 b 100 15 249 110 163 15 z "},"õ":{"ha":563,"x_min":0,"x_max":0,"o":"m 564 222 b 454 117 528 146 493 117 b 357 232 406 117 357 161 b 411 407 357 306 411 372 b 364 461 411 424 399 461 b 354 460 360 461 357 461 b 294 489 346 476 329 489 b -42 76 129 489 -42 224 b 69 -44 -42 6 -1 -44 b 313 186 167 -44 254 50 b 443 89 340 122 392 89 b 582 208 489 89 542 115 z m 100 15 b 47 86 67 15 47 43 b 317 435 47 192 160 435 b 290 308 301 411 290 371 b 299 229 290 276 293 251 b 100 15 249 110 163 15 z m 165 585 b 229 596 186 593 207 596 b 483 542 317 596 404 542 b 592 592 522 542 558 554 b 550 588 578 589 564 588 b 281 649 447 588 358 649 b 165 585 239 649 201 632 z "},"p":{"ha":544,"x_min":0,"x_max":0,"o":"m 146 -36 b 474 313 338 -36 474 168 b 333 471 474 407 415 471 b 93 267 225 471 140 358 b 125 454 113 357 125 428 b 58 518 125 486 106 518 b 32 494 36 518 33 511 b -157 -336 -35 -62 -92 -107 b -114 -389 -158 -342 -137 -389 b -97 -382 -108 -389 -101 -386 b 74 183 -65 -351 8 -94 b 304 407 108 264 207 407 b 383 300 360 407 383 358 b 100 -4 383 158 249 -4 b 65 -11 81 -4 65 -4 b 146 -36 65 -22 97 -36 z "},"¶":{"ha":847,"x_min":0,"x_max":0,"o":"m 649 994 b 613 983 638 994 625 992 b 621 794 617 939 619 872 b 563 803 601 797 582 801 b 510 994 558 868 572 994 b 469 983 499 994 486 992 b 482 804 476 932 481 871 b 50 467 292 788 50 674 b 451 217 50 261 339 222 b 422 -121 442 94 429 -24 b 544 -51 469 -121 529 -92 b 568 464 551 -31 568 153 b 564 771 568 546 567 701 b 621 757 585 767 603 763 l 621 751 b 585 -121 621 411 592 -106 b 679 -51 625 -121 664 -94 b 701 650 686 -22 701 217 b 700 721 701 672 701 697 b 757 692 729 706 749 692 b 814 729 768 692 808 715 b 699 775 786 743 746 760 b 649 994 693 890 681 994 z "},"(":{"ha":292,"x_min":0,"x_max":0,"o":"m 426 1000 b 0 263 303 1000 0 706 b 118 -121 0 82 50 -81 b 146 -92 129 -115 139 -107 b 81 225 106 -25 81 86 b 426 1000 81 503 181 825 z "},")":{"ha":419,"x_min":0,"x_max":0,"o":"m -56 -87 b -25 -121 -49 -103 -37 -118 b 372 604 72 -121 372 186 b 203 1000 372 839 278 981 b 301 660 283 889 301 775 b -56 -87 301 310 138 49 z "},"%":{"ha":1000,"x_min":0,"x_max":0,"o":"m 457 785 b 340 929 457 872 411 929 b 139 632 221 929 139 756 b 253 482 139 553 174 482 b 457 785 372 482 457 667 z m 340 879 b 385 796 372 879 385 844 b 261 535 385 690 328 535 b 215 621 232 535 215 569 b 340 879 215 708 258 879 z m 825 1000 b 708 938 781 1000 718 964 b 111 -121 610 682 240 8 b 368 135 190 -121 272 -18 b 825 1000 488 326 794 921 z m 906 303 b 789 447 906 390 860 447 b 588 150 669 447 588 274 b 701 0 588 71 622 0 b 906 303 821 0 906 186 z m 789 397 b 833 314 821 397 833 363 b 710 53 833 208 776 53 b 664 140 681 53 664 88 b 789 397 664 226 707 397 z "},".":{"ha":217,"x_min":0,"x_max":0,"o":"m 47 -14 b 119 47 83 -14 119 19 b 83 81 119 72 106 81 b 3 24 47 81 3 54 b 47 -14 3 -3 24 -14 z "},"·":{"ha":217,"x_min":0,"x_max":0,"o":"m 47 172 b 119 233 83 172 119 206 b 83 267 119 258 106 267 b 3 210 47 267 3 240 b 47 172 3 183 24 172 z "},"‰":{"ha":1393,"x_min":0,"x_max":0,"o":"m 457 785 b 340 929 457 872 411 929 b 139 632 221 929 139 756 b 253 482 139 553 174 482 b 457 785 372 482 457 667 z m 340 879 b 385 796 372 879 385 844 b 261 535 385 690 328 535 b 215 621 232 535 215 569 b 340 879 215 708 258 879 z m 825 1000 b 708 938 781 1000 718 964 b 111 -121 610 682 240 8 b 368 135 190 -121 272 -18 b 825 1000 488 326 794 921 z m 906 303 b 789 447 906 390 860 447 b 588 150 669 447 588 274 b 701 0 588 71 622 0 b 906 303 821 0 906 186 z m 789 397 b 833 314 821 397 833 363 b 710 53 833 208 776 53 b 664 140 681 53 664 88 b 789 397 664 226 707 397 z m 1306 303 b 1189 447 1306 390 1260 447 b 988 150 1069 447 988 274 b 1101 0 988 71 1022 0 b 1306 303 1221 0 1306 186 z m 1189 397 b 1233 314 1221 397 1233 363 b 1110 53 1233 208 1176 53 b 1064 140 1081 53 1064 88 b 1189 397 1064 226 1107 397 z "},"+":{"ha":726,"x_min":0,"x_max":0,"o":"m 285 -15 b 353 215 336 4 350 96 l 432 215 b 575 256 471 215 529 222 b 353 268 536 260 447 267 b 340 481 351 358 344 443 b 300 338 307 435 300 376 l 300 268 b 79 200 186 265 97 250 b 300 215 164 214 214 215 b 285 -15 300 124 299 72 z "},"±":{"ha":726,"x_min":0,"x_max":0,"o":"m 289 229 b 350 413 335 244 347 318 l 421 413 b 550 446 457 413 508 418 b 350 456 515 449 435 454 b 339 625 349 528 343 594 b 303 511 308 589 303 542 l 303 456 b 104 401 200 453 119 440 b 303 413 182 413 222 413 b 289 229 303 340 301 297 z m 104 117 b 338 129 185 128 261 129 b 550 161 465 129 511 138 b 340 171 514 165 429 171 b 104 117 221 171 122 161 z "},"q":{"ha":558,"x_min":0,"x_max":0,"o":"m 407 376 b 453 428 436 376 453 404 b 343 496 453 467 406 496 b -46 78 157 496 -46 239 b 58 -42 -46 -8 11 -42 b 278 136 126 -42 204 31 b 196 -287 228 -6 196 -192 b 244 -389 196 -367 218 -389 b 347 -150 303 -389 347 -281 b 324 7 347 -93 339 -42 b 575 208 410 15 514 68 l 558 224 b 326 40 488 89 406 47 b 449 338 364 210 449 292 b 421 363 449 349 443 363 b 360 319 403 363 381 353 b 100 25 274 182 174 25 b 51 92 71 25 51 50 b 328 453 51 197 175 453 b 407 376 385 453 407 417 z m 317 -137 b 282 -312 317 -219 303 -312 b 271 -274 274 -312 271 -297 b 307 -33 271 -224 283 -132 b 317 -137 314 -67 317 -100 z "},"?":{"ha":633,"x_min":0,"x_max":0,"o":"m 568 815 b 381 1000 568 935 496 1000 b 89 694 208 1000 89 851 b 175 588 89 639 104 599 b 165 667 169 614 165 635 b 375 961 165 829 278 961 b 485 804 438 961 485 908 b 219 238 485 558 219 458 b 263 172 219 201 226 190 b 297 329 282 218 279 267 b 568 815 358 544 568 613 z m 206 -14 b 278 50 242 -14 278 18 b 242 81 278 71 264 81 b 161 22 206 81 161 56 b 206 -14 161 -1 182 -14 z "},"¿":{"ha":633,"x_min":0,"x_max":0,"o":"m 74 -224 b 261 -389 74 -331 146 -389 b 553 -114 433 -389 553 -256 b 467 -18 553 -64 538 -28 b 476 -89 472 -42 476 -61 b 267 -354 476 -236 364 -354 b 157 -212 204 -354 157 -307 b 422 297 157 8 422 99 b 379 356 422 329 415 339 b 344 214 360 314 363 271 b 74 -224 283 21 74 -40 z m 432 542 b 360 478 396 542 360 510 b 396 447 360 457 374 447 b 476 506 432 447 476 472 b 432 542 476 529 456 542 z "},"\"":{"ha":386,"x_min":0,"x_max":0,"o":"m 178 961 b 143 1000 178 982 161 1000 b 58 851 101 1000 58 908 b 82 800 58 829 65 810 b 178 961 107 854 126 907 z m 344 961 b 310 1000 344 982 328 1000 b 225 851 268 1000 225 908 b 249 800 225 829 232 810 b 344 961 274 854 293 907 z "},"„":{"ha":335,"x_min":0,"x_max":0,"o":"m 110 39 b 75 78 110 60 93 78 b -10 -71 33 78 -10 -14 b 14 -122 -10 -93 -3 -112 b 110 39 39 -68 58 -15 z m 263 39 b 228 78 263 60 246 78 b 143 -71 186 78 143 -14 b 167 -122 143 -93 150 -112 b 263 39 192 -68 211 -15 z "},"“":{"ha":328,"x_min":0,"x_max":0,"o":"m 22 961 b 118 800 22 925 85 851 b 144 839 132 808 144 822 b 142 851 144 843 143 847 b 57 1000 118 906 68 957 b 22 961 39 1000 22 982 z m 175 961 b 271 800 175 925 238 851 b 297 839 285 808 297 822 b 294 851 297 843 296 847 b 210 1000 271 906 221 957 b 175 961 192 1000 175 982 z "},"”":{"ha":328,"x_min":0,"x_max":0,"o":"m 144 961 b 110 1000 144 982 128 1000 b 25 851 99 957 49 906 b 22 839 24 847 22 843 b 49 800 22 822 35 808 b 144 961 82 851 144 925 z m 297 961 b 263 1000 297 982 281 1000 b 178 851 251 957 201 906 b 175 839 176 847 175 843 b 201 800 175 822 188 808 b 297 961 235 851 297 925 z "},"‘":{"ha":178,"x_min":0,"x_max":0,"o":"m 22 961 b 118 800 22 925 85 851 b 144 839 132 808 144 822 b 142 851 144 843 143 847 b 57 1000 118 906 68 957 b 22 961 39 1000 22 982 z "},"’":{"ha":178,"x_min":0,"x_max":0,"o":"m 144 961 b 110 1000 144 982 128 1000 b 25 851 99 957 49 906 b 22 839 24 847 22 843 b 49 800 22 822 35 808 b 144 961 82 851 144 925 z "},"‚":{"ha":218,"x_min":0,"x_max":0,"o":"m 110 39 b 75 78 110 60 93 78 b -10 -71 33 78 -10 -14 b 14 -122 -10 -93 -3 -112 b 110 39 39 -68 58 -15 z "},"'":{"ha":218,"x_min":0,"x_max":0,"o":"m 165 961 b 131 1000 165 982 149 1000 b 46 851 89 1000 46 908 b 69 800 46 829 53 810 b 165 961 94 854 114 907 z "},"r":{"ha":485,"x_min":0,"x_max":0,"o":"m -11 153 b 113 419 18 203 69 310 b 190 314 147 394 190 374 b 114 54 190 240 114 136 b 215 -36 114 0 153 -36 b 506 207 333 -36 453 89 l 488 221 b 251 14 453 140 339 14 b 210 56 229 14 210 22 b 279 290 210 114 279 206 b 138 483 279 408 138 432 b 153 535 138 489 153 525 b 133 568 153 544 153 568 b 75 474 118 568 75 529 b 89 440 75 460 81 449 b -24 176 49 322 1 225 z "},"®":{"ha":961,"x_min":0,"x_max":0,"o":"m 139 497 b 478 139 139 257 321 139 b 822 503 632 139 822 254 b 483 861 822 743 640 861 b 139 497 329 861 139 746 z m 783 503 b 478 178 783 310 654 178 b 178 497 299 178 178 313 b 483 822 178 690 307 822 b 783 503 663 822 783 688 z m 378 311 b 400 292 378 299 389 292 b 421 311 410 292 421 299 l 421 490 l 478 490 l 551 332 b 586 292 556 325 569 292 b 606 311 599 292 606 300 b 603 321 606 314 604 318 l 522 493 b 606 607 568 503 606 536 b 486 724 606 696 550 724 l 399 724 b 378 706 386 724 378 714 z m 486 686 b 563 607 532 686 563 664 b 486 526 563 550 532 526 l 421 526 l 421 686 z "},"˚":{"ha":592,"x_min":0,"x_max":0,"o":"m 338 781 b 168 625 243 781 168 692 b 268 550 168 583 196 550 b 443 706 363 550 443 639 b 338 781 443 747 414 781 z m 331 749 b 392 697 372 749 392 724 b 281 578 392 649 335 578 b 222 635 240 578 222 610 b 331 749 222 685 275 749 z "},"s":{"ha":481,"x_min":0,"x_max":0,"o":"m -53 111 b 121 -71 -53 28 -10 -71 b 299 44 200 -71 269 -35 b 493 210 382 57 458 108 l 481 224 b 306 67 426 119 369 78 b 314 135 311 88 314 110 b 242 469 314 263 242 378 b 250 531 242 501 250 521 b 228 549 250 540 243 549 b 174 454 201 549 174 522 l 174 438 b 36 236 139 364 92 297 b -53 111 21 219 -53 221 z m 224 133 b 218 68 224 106 221 86 b 46 204 133 86 74 144 b 181 385 88 246 138 314 b 224 133 194 308 224 221 z m 124 -22 b 10 113 51 -22 10 46 b 40 161 10 142 18 160 b 211 46 69 114 133 61 b 124 -22 190 -15 146 -22 z "},"š":{"ha":481,"x_min":0,"x_max":0,"o":"m -53 111 b 121 -71 -53 28 -10 -71 b 299 44 200 -71 269 -35 b 493 210 382 57 458 108 l 481 224 b 306 67 426 119 369 78 b 314 135 311 88 314 110 b 242 469 314 263 242 378 b 250 531 242 501 250 521 b 228 549 250 540 243 549 b 174 454 201 549 174 522 l 174 438 b 36 236 139 364 92 297 b -53 111 21 219 -53 221 z m 224 133 b 218 68 224 106 221 86 b 46 204 133 86 74 144 b 181 385 88 246 138 314 b 224 133 194 308 224 221 z m 124 -22 b 10 113 51 -22 10 46 b 40 161 10 142 18 160 b 211 46 69 114 133 61 b 124 -22 190 -15 146 -22 z m 435 754 b 292 675 393 717 349 696 b 189 803 247 717 215 750 b 165 760 172 794 165 778 b 290 606 165 700 246 606 b 449 728 328 606 449 674 b 435 754 449 736 446 747 z "},"§":{"ha":785,"x_min":0,"x_max":0,"o":"m 447 43 b 282 -86 447 -42 363 -86 b 146 39 189 -86 146 -26 b 194 157 146 79 163 124 b 82 39 146 157 82 131 b 267 -121 82 -69 171 -121 b 508 69 376 -121 508 -49 b 303 292 508 204 343 249 b 397 265 351 275 350 265 b 588 444 513 265 588 324 b 339 781 588 664 339 647 b 535 978 339 857 422 978 b 583 940 572 978 583 964 b 532 753 583 888 532 804 b 561 715 532 736 538 719 b 629 911 589 760 629 844 b 531 999 629 963 606 999 b 283 763 385 999 283 860 b 428 596 283 678 357 636 b 394 597 417 597 406 597 b 172 403 247 597 172 500 b 447 43 172 215 447 194 z m 376 321 b 250 431 260 321 250 396 b 388 557 250 522 317 557 b 508 439 471 557 508 508 b 376 321 508 363 463 321 z "},";":{"ha":271,"x_min":0,"x_max":0,"o":"m 131 333 b 203 394 167 333 203 367 b 167 428 203 419 189 428 b 86 371 131 428 86 401 b 131 333 86 344 107 333 z m 110 39 b 75 78 110 60 93 78 b -10 -71 33 78 -10 -14 b 14 -122 -10 -93 -3 -112 b 110 39 39 -68 58 -15 z "},"/":{"ha":583,"x_min":0,"x_max":0,"o":"m 568 1000 b 451 938 524 1000 461 964 b -76 -225 353 682 53 -96 b 167 31 3 -225 97 -135 b 568 1000 247 222 538 921 z "}," ":{"ha":388,"x_min":0,"x_max":0,"o":""},"£":{"ha":910,"x_min":0,"x_max":0,"o":"m 257 361 b 390 376 310 368 349 369 l 369 313 b 182 215 268 310 186 289 l 229 222 b 343 236 274 229 308 232 b 274 79 322 176 299 122 b 103 108 211 96 151 108 b 1 47 28 108 1 81 b 140 -74 1 1 50 -74 b 294 8 199 -74 249 -43 b 656 -121 419 -47 554 -121 b 801 -3 722 -121 771 -89 b 703 -25 772 -18 742 -25 b 335 61 600 -25 463 22 b 426 240 368 111 397 174 b 692 289 633 244 661 246 b 454 310 626 290 544 304 b 481 381 464 333 472 357 b 719 428 661 383 689 385 b 504 447 660 428 586 442 b 535 539 514 479 524 508 l 557 539 b 890 858 786 539 890 731 b 756 1000 890 969 811 1000 b 457 585 615 1000 529 806 b 378 728 411 610 378 657 b 396 814 378 753 382 794 b 310 704 343 814 310 753 b 447 556 310 642 361 583 l 414 451 b 210 354 304 451 214 431 z m 765 965 b 815 896 792 965 815 949 b 543 565 815 786 711 567 b 765 965 614 779 679 965 z m 135 -33 b 38 46 78 -33 38 14 b 83 72 38 63 49 72 b 242 31 128 72 183 54 b 135 -33 211 -10 175 -33 z "},"t":{"ha":397,"x_min":0,"x_max":0,"o":"m 397 443 b 199 435 328 436 260 435 l 147 435 b 332 799 228 606 332 750 b 303 829 332 818 317 829 b 61 439 246 829 139 639 b 0 444 35 440 14 443 l 0 419 b 50 408 15 414 32 411 b -31 74 3 282 -31 156 b 93 -64 -31 -18 13 -64 b 415 211 224 -64 349 54 l 397 225 b 133 -12 326 79 229 -12 b 56 99 78 -12 56 18 b 132 401 56 197 89 303 l 153 401 b 397 418 215 401 296 407 z "},"þ":{"ha":544,"x_min":0,"x_max":0,"o":"m 146 -36 b 474 313 338 -36 474 168 b 333 471 474 407 415 471 b 93 267 225 471 140 358 b 156 663 113 357 156 636 b 89 726 156 694 136 726 b 63 703 67 726 64 719 b -157 -336 -4 146 -92 -107 b -114 -389 -158 -342 -137 -389 b -97 -382 -108 -389 -101 -386 b 74 183 -65 -351 8 -94 b 304 407 108 264 207 407 b 383 300 360 407 383 358 b 100 -4 383 158 249 -4 b 65 -11 81 -4 65 -4 b 146 -36 65 -22 97 -36 z "},"¾":{"ha":1000,"x_min":0,"x_max":0,"o":"m 825 1000 b 708 938 781 1000 718 964 b 111 -121 610 682 240 8 b 368 135 190 -121 272 -18 b 825 1000 488 326 794 921 z m 839 524 b 549 210 778 413 633 285 b 535 175 542 203 535 192 b 675 188 572 183 615 188 l 699 188 b 725 186 707 188 715 186 b 690 0 694 46 690 6 b 757 -36 690 -22 717 -33 b 786 186 757 21 781 158 l 796 186 b 867 235 815 186 846 206 b 817 228 846 231 832 228 l 793 228 b 857 504 831 421 857 492 b 839 524 857 517 850 522 z m 736 231 l 710 231 b 671 232 697 231 685 232 b 611 229 647 232 628 231 b 713 328 642 263 681 297 l 774 388 b 743 263 761 349 753 310 z m 371 908 b 254 740 371 853 325 772 b 336 614 315 725 336 668 b 229 464 336 525 281 464 b 163 546 188 464 163 504 b 186 611 163 569 171 599 b 167 614 178 614 172 614 b 104 538 125 614 104 572 b 222 436 104 493 135 436 b 417 614 333 436 417 526 b 319 747 417 660 392 722 b 433 906 386 769 433 847 b 322 997 433 967 379 997 b 189 890 257 997 189 958 b 218 833 189 867 199 833 b 251 856 229 833 246 844 b 240 901 244 872 240 888 b 314 974 240 947 278 974 b 371 908 343 974 371 957 z "},"³":{"ha":440,"x_min":0,"x_max":0,"o":"m 322 908 b 206 740 322 853 276 772 b 288 614 267 725 288 668 b 181 464 288 525 232 464 b 114 546 139 464 114 504 b 138 611 114 569 122 599 b 118 614 129 614 124 614 b 56 538 76 614 56 572 b 174 436 56 493 86 436 b 368 614 285 436 368 526 b 271 747 368 660 343 722 b 385 906 338 769 385 847 b 274 997 385 967 331 997 b 140 890 208 997 140 958 b 169 833 140 867 150 833 b 203 856 181 833 197 844 b 192 901 196 872 192 888 b 265 974 192 947 229 974 b 322 908 294 974 322 957 z "},"˜":{"ha":426,"x_min":0,"x_max":0,"o":"m 0 585 b 64 596 21 593 42 596 b 318 542 151 596 239 542 b 426 592 357 542 393 554 b 385 588 413 589 399 588 b 115 649 282 588 193 649 b 0 585 74 649 36 632 z "},"™":{"ha":807,"x_min":0,"x_max":0,"o":"m 744 983 b 725 988 736 986 731 988 b 547 693 664 988 603 783 b 557 868 547 721 557 811 b 496 994 557 971 536 994 l 389 994 b 121 944 244 994 122 990 l 128 942 b 272 951 174 950 204 951 b 142 586 211 822 142 625 b 199 544 142 563 156 544 b 196 560 196 553 196 556 b 310 953 196 651 275 865 b 483 961 350 958 424 961 b 497 950 494 961 497 957 b 490 929 497 943 493 935 b 344 607 432 790 375 675 l 317 544 b 508 901 360 544 386 607 l 508 896 b 500 661 508 833 500 722 b 529 592 500 617 506 592 b 542 597 533 592 536 592 b 671 876 565 657 625 799 b 625 608 646 781 625 688 b 682 544 625 563 636 544 l 676 561 b 672 593 674 569 672 576 b 749 979 672 693 728 926 z "},"²":{"ha":482,"x_min":0,"x_max":0,"o":"m 217 774 b 207 824 210 793 207 806 b 296 960 207 900 240 960 b 364 865 335 960 364 932 b 183 511 364 743 267 585 b 113 521 156 517 133 521 b 56 485 72 521 56 507 b 108 444 56 461 78 444 b 186 474 132 444 157 454 l 213 463 b 347 422 258 443 310 422 b 426 503 389 422 413 447 b 365 478 396 483 381 478 b 239 500 333 478 286 489 l 228 503 b 424 856 328 585 424 733 b 307 983 424 926 378 983 b 153 838 217 983 153 913 b 206 774 153 799 171 783 z m 107 469 b 88 483 97 469 88 475 b 107 497 88 489 92 497 b 150 488 117 497 132 494 b 107 469 132 476 119 469 z "},"u":{"ha":610,"x_min":0,"x_max":0,"o":"m 358 376 b 106 14 306 272 192 14 b 56 107 60 14 56 83 b 149 386 56 200 118 339 b 97 414 133 403 107 414 b -25 99 56 414 -25 204 b 79 -42 -25 24 17 -42 b 261 131 149 -42 210 39 b 251 61 256 107 251 83 b 349 -42 251 4 275 -42 b 628 213 447 -42 568 63 l 610 225 b 378 0 542 82 436 0 b 332 56 344 0 332 22 b 425 340 332 149 425 325 b 358 376 425 364 374 374 z "},"ú":{"ha":607,"x_min":0,"x_max":0,"o":"m 358 376 b 106 14 306 272 192 14 b 56 107 60 14 56 83 b 149 386 56 200 118 339 b 97 414 133 403 107 414 b -25 99 56 414 -25 204 b 79 -42 -25 24 17 -42 b 261 131 149 -42 210 39 b 251 61 256 107 251 83 b 349 -42 251 4 275 -42 b 628 213 447 -42 568 63 l 610 225 b 378 0 542 82 436 0 b 332 56 344 0 332 22 b 425 340 332 149 425 325 b 358 376 425 364 374 374 z m 442 675 b 411 718 439 708 426 718 b 267 550 356 718 267 582 b 286 514 267 542 272 521 b 442 675 326 568 375 617 z "},"û":{"ha":610,"x_min":0,"x_max":0,"o":"m 358 376 b 106 14 306 272 192 14 b 56 107 60 14 56 83 b 149 386 56 200 118 339 b 97 414 133 403 107 414 b -25 99 56 414 -25 204 b 79 -42 -25 24 17 -42 b 261 131 149 -42 210 39 b 251 61 256 107 251 83 b 349 -42 251 4 275 -42 b 628 213 447 -42 568 63 l 610 225 b 378 0 542 82 436 0 b 332 56 344 0 332 22 b 425 340 332 149 425 325 b 358 376 425 364 374 374 z m 231 613 b 374 692 272 650 317 671 b 476 564 418 650 450 617 b 500 607 493 572 500 589 b 375 761 500 667 419 761 b 217 639 338 761 217 693 b 231 613 217 631 219 619 z "},"ü":{"ha":607,"x_min":0,"x_max":0,"o":"m 358 376 b 106 14 306 272 192 14 b 56 107 60 14 56 83 b 149 386 56 200 118 339 b 97 414 133 403 107 414 b -25 99 56 414 -25 204 b 79 -42 -25 24 17 -42 b 261 131 149 -42 210 39 b 251 61 256 107 251 83 b 349 -42 251 4 275 -42 b 628 213 447 -42 568 63 l 610 225 b 378 0 542 82 436 0 b 332 56 344 0 332 22 b 425 340 332 149 425 325 b 358 376 425 364 374 374 z m 201 606 b 283 674 242 606 283 642 b 242 713 283 703 267 713 b 150 647 201 713 150 682 b 201 606 150 618 174 606 z m 401 576 b 483 644 442 576 483 613 b 442 683 483 674 467 683 b 350 618 401 683 350 653 b 401 576 350 589 374 576 z "},"ù":{"ha":610,"x_min":0,"x_max":0,"o":"m 358 376 b 106 14 306 272 192 14 b 56 107 60 14 56 83 b 149 386 56 200 118 339 b 97 414 133 403 107 414 b -25 99 56 414 -25 204 b 79 -42 -25 24 17 -42 b 261 131 149 -42 210 39 b 251 61 256 107 251 83 b 349 -42 251 4 275 -42 b 628 213 447 -42 568 63 l 610 225 b 378 0 542 82 436 0 b 332 56 344 0 332 22 b 425 340 332 149 425 325 b 358 376 425 364 374 374 z m 203 731 b 358 569 269 672 318 624 b 378 606 372 576 378 597 b 233 774 378 638 289 774 b 203 731 218 774 206 764 z "},"_":{"ha":1157,"x_min":0,"x_max":0,"o":"m 1 -92 b 797 -65 235 -62 238 -68 b 1024 -3 857 -65 947 -56 b 490 22 829 -1 765 22 b 1 -92 215 22 11 1 z "},"­":{"ha":726,"x_min":0,"x_max":0,"o":"m 79 200 b 292 215 164 214 207 215 b 575 256 482 215 533 226 b 342 268 535 260 440 268 b 79 200 208 268 100 256 z "},"v":{"ha":567,"x_min":0,"x_max":0,"o":"m 567 219 b 457 117 531 143 496 117 b 392 222 399 117 392 176 b 440 408 392 346 440 372 b 390 461 440 428 425 461 b 326 304 356 461 331 429 b 97 0 268 175 165 0 b 65 78 72 0 65 24 b 78 301 65 150 78 240 b 42 346 78 336 74 346 b -3 281 1 346 0 331 b -11 99 -10 151 -11 101 b 65 -54 -11 8 7 -54 b 331 224 154 -54 263 89 b 447 89 343 133 386 89 b 585 206 492 89 544 113 z "},"w":{"ha":858,"x_min":0,"x_max":0,"o":"m 858 219 b 749 117 822 143 788 117 b 683 222 690 117 683 176 b 732 408 683 346 732 372 b 682 461 732 428 717 461 b 613 285 647 461 613 429 b 397 0 551 154 454 0 b 367 68 375 0 367 25 b 406 358 367 163 385 290 b 408 374 407 364 408 369 b 368 404 408 394 392 404 b 313 279 342 404 335 393 b 104 14 249 153 168 14 b 56 107 60 14 56 83 b 149 386 56 199 118 339 b 97 414 149 403 107 414 b -25 99 56 414 -25 204 b 79 -42 -25 22 18 -42 b 301 206 164 -42 240 83 b 292 81 296 163 292 118 b 367 -54 292 7 308 -54 b 622 206 451 -54 553 76 b 739 89 640 128 682 89 b 876 206 783 89 836 113 z "},"x":{"ha":582,"x_min":0,"x_max":0,"o":"m 53 -72 b 235 154 86 -29 157 61 b 353 -36 247 56 271 -36 b 597 210 450 -36 557 90 l 583 224 b 388 14 546 142 456 14 b 313 246 319 14 324 133 b 528 446 406 354 496 446 b 493 461 528 456 501 461 b 304 300 468 461 390 390 b 189 432 290 374 261 432 b -11 201 69 432 40 300 l 1 179 b 167 378 60 282 99 378 b 228 217 210 378 218 303 b 22 -61 119 96 22 -29 b 36 -82 22 -75 28 -82 b 53 -72 42 -82 47 -79 z "},"y":{"ha":542,"x_min":0,"x_max":0,"o":"m 421 378 b 392 382 410 381 400 382 b 321 311 346 382 326 338 b 307 247 317 289 313 268 b 122 69 251 156 175 69 b 72 125 85 69 72 92 b 164 397 72 200 132 350 b 103 429 164 414 114 429 b -19 126 63 429 -19 229 b 92 14 -19 49 38 14 b 294 190 167 14 235 93 b 217 -64 269 89 243 4 b -53 -315 76 -135 -53 -197 b 35 -389 -53 -364 -12 -389 b 297 -49 131 -389 225 -226 b 560 211 400 -1 518 78 l 542 225 b 313 -11 489 97 399 22 b 421 378 378 157 421 332 z m 28 -344 b -10 -303 0 -344 -10 -318 b 203 -97 -10 -211 88 -158 b 28 -344 128 -281 56 -344 z "},"ý":{"ha":494,"x_min":0,"x_max":0,"o":"m 421 378 b 392 382 410 381 400 382 b 321 311 346 382 326 338 b 307 247 317 289 313 268 b 122 69 251 156 175 69 b 72 125 85 69 72 92 b 164 397 72 200 132 350 b 103 429 164 414 114 429 b -19 126 63 429 -19 229 b 92 14 -19 49 38 14 b 294 190 167 14 235 93 b 217 -64 269 89 243 4 b -53 -315 76 -135 -53 -197 b 35 -389 -53 -364 -12 -389 b 297 -49 131 -389 225 -226 b 560 211 400 -1 518 78 l 542 225 b 313 -11 489 97 399 22 b 421 378 378 157 421 332 z m 28 -344 b -10 -303 0 -344 -10 -318 b 203 -97 -10 -211 88 -158 b 28 -344 128 -281 56 -344 z m 489 675 b 458 718 486 708 474 718 b 314 550 403 718 314 582 b 333 514 314 542 319 521 b 489 675 374 568 422 617 z "},"ÿ":{"ha":494,"x_min":0,"x_max":0,"o":"m 421 378 b 392 382 410 381 400 382 b 321 311 346 382 326 338 b 307 247 317 289 313 268 b 122 69 251 156 175 69 b 72 125 85 69 72 92 b 164 397 72 200 132 350 b 103 429 164 414 114 429 b -19 126 63 429 -19 229 b 92 14 -19 49 38 14 b 294 190 167 14 235 93 b 217 -64 269 89 243 4 b -53 -315 76 -135 -53 -197 b 35 -389 -53 -364 -12 -389 b 297 -49 131 -389 225 -226 b 560 211 400 -1 518 78 l 542 225 b 313 -11 489 97 399 22 b 421 378 378 157 421 332 z m 28 -344 b -10 -303 0 -344 -10 -318 b 203 -97 -10 -211 88 -158 b 28 -344 128 -281 56 -344 z m 201 606 b 283 674 242 606 283 642 b 242 713 283 703 267 713 b 150 647 201 713 150 682 b 201 606 150 618 174 606 z m 401 576 b 483 644 442 576 483 613 b 442 683 483 674 467 683 b 350 618 401 683 350 653 b 401 576 350 589 374 576 z "},"¥":{"ha":900,"x_min":0,"x_max":0,"o":"m 214 -25 b 131 -129 157 -44 131 -82 b 322 -260 131 -214 217 -260 b 628 -32 478 -260 568 -161 l 693 -32 b 836 8 732 -32 790 -25 b 650 19 803 11 731 18 b 681 107 661 49 671 76 l 693 107 b 836 147 732 107 790 114 b 694 157 808 150 757 154 b 724 269 706 194 714 232 b 953 956 836 726 857 803 b 875 1000 926 983 893 1000 b 708 611 815 1000 757 813 b 414 265 646 450 543 265 b 317 399 344 265 317 318 b 410 860 317 547 410 756 b 265 1000 410 926 371 1000 b 0 749 121 1000 0 864 b 96 653 0 696 25 653 b 85 721 89 669 85 694 b 235 961 85 813 132 961 b 314 853 294 961 314 911 b 219 375 314 726 219 521 b 371 210 219 278 261 210 b 672 453 504 210 599 311 b 614 168 647 338 628 231 l 611 160 l 603 160 b 340 92 469 160 361 147 b 592 107 431 106 513 107 l 599 107 b 571 21 590 79 582 50 b 340 -47 453 18 360 4 b 550 -32 415 -35 483 -32 b 324 -225 504 -133 433 -225 b 203 -100 243 -225 203 -176 b 214 -25 203 -79 206 -53 z "},"z":{"ha":442,"x_min":0,"x_max":0,"o":"m 456 208 l 440 225 b 286 29 414 146 356 82 b 189 154 269 75 238 117 b 353 376 272 196 353 275 b 238 490 353 446 300 490 b -10 200 111 490 51 365 l 7 186 b 218 438 71 322 125 438 b 272 364 254 438 272 406 b 121 160 272 292 218 188 b 217 -17 193 103 217 50 b -124 -318 56 -124 -124 -199 b -32 -389 -124 -369 -89 -389 b 300 -43 138 -389 300 -211 b 294 3 300 -28 299 -11 b 456 208 368 58 429 125 z m -42 -349 b -85 -303 -67 -349 -85 -335 b 215 -49 -85 -210 68 -143 b -42 -349 197 -240 26 -349 z "},"ž":{"ha":442,"x_min":0,"x_max":0,"o":"m 456 208 l 440 225 b 286 29 414 146 356 82 b 189 154 269 75 238 117 b 353 376 272 196 353 275 b 238 490 353 446 300 490 b -10 200 111 490 51 365 l 7 186 b 218 438 71 322 125 438 b 272 364 254 438 272 406 b 121 160 272 292 218 188 b 217 -17 193 103 217 50 b -124 -318 56 -124 -124 -199 b -32 -389 -124 -369 -89 -389 b 300 -43 138 -389 300 -211 b 294 3 300 -28 299 -11 b 456 208 368 58 429 125 z m -42 -349 b -85 -303 -67 -349 -85 -335 b 215 -49 -85 -210 68 -143 b -42 -349 197 -240 26 -349 z m 474 713 b 331 633 432 675 388 654 b 228 761 286 675 254 708 b 204 718 211 753 204 736 b 329 564 204 658 285 564 b 488 686 367 564 488 632 b 474 713 488 694 485 706 z "}}}
